<svg id="Layer_1" data-name="Layer 1" xmlns="http://www.w3.org/2000/svg" viewBox="0 0 400 400"><defs><style>.cls-1{fill:#e8ecf0;}.cls-2{fill:#151515;}.cls-3{fill:#282625;}.cls-4{fill:#100f0e;}.cls-5{fill:none;stroke:#151515;stroke-miterlimit:10;}.cls-6{fill:#e35139;}.cls-7{fill:#a51e22;}</style></defs><g id="Layer_3" data-name="Layer 3"><g id="LOGO"><g id="CIRCLE_MOON" data-name="CIRCLE MOON"><polygon class="cls-1" points="226.03 278.82 232.05 274.1 271.42 274.1 279.55 286.95 263.77 302.57 305.09 269.71 328.84 282.56 280.04 324.53 214.97 332.01 158.03 328.43 89.54 279.31 138.83 276.54 147.78 269.71 159.49 274.1 180.32 291.18 161.93 270.68 169.25 266.62 213.01 276.21 234 291.99 226.03 278.82"/><path class="cls-1" d="M308.18,77.59a144.95,144.95,0,1,1-216.69,0A160.1,160.1,0,0,0,40.25,195c0,88.17,71.58,159.75,159.75,159.75S359.75,283.21,359.75,195A160.35,160.35,0,0,0,308.18,77.59Z"/></g><g id="Centaur"><g id="Body"><path d="M136.53,91.09l.72,10.73a2.36,2.36,0,0,0,.14,1l2,6.83a1.56,1.56,0,0,0,2.59,1c4.17-3.42,14.25-12,17-12,2.59,0,11.66,9.11,15.4,12.53a1.84,1.84,0,0,0,2.88-.65l2.88-6.67a2.68,2.68,0,0,0,.29-1.47V86.7c0-1-1.15-2.12-1.87-2.61l-8.64-2.93a2.23,2.23,0,0,0-1-.16l-22.75-.65a1.56,1.56,0,0,0-1.15.33l-7.2,4.06a2.9,2.9,0,0,0-1.44,2.44Z"/><polygon points="136.09 93.85 139.95 98.73 148.11 96.78 154.78 96.29 171.84 96.62 176.59 98.73 181.78 94.02 181.04 102.15 177.63 110.45 176.59 112.4 173.18 109.63 159.83 99.55 156.86 99.55 139.95 112.72 138.47 110.94 136.69 102.8 136.09 93.85"/><path d="M147.32,91.25s.72,3.58,3.46,4.88a20.83,20.83,0,0,0,8.06,2.12c3.31,0,11.23-2.28,12.53-3.91.43-.49,1-3.9-.14-4.39a9.75,9.75,0,0,0-2.16,0c-3.46.32-20.16,2.28-21.75,1.3"/><path d="M180.15,82.79l-9.93-3.41a1.6,1.6,0,0,0-.87-.17l-24.62-.81a3.82,3.82,0,0,0-1.29.32l-6.34,3.91a3.25,3.25,0,0,0-1.44,2.76v6.19l.43,12a1,1,0,0,0,.15.65l2.3,8.63a1.47,1.47,0,0,0,2.45.81c4.17-3.74,14.54-13,17.56-13s12.53,9.27,16.28,13a1.58,1.58,0,0,0,2.59-.65l3.31-7.65a3.36,3.36,0,0,0,.29-1.14l1-12.68v-6A2.91,2.91,0,0,0,180.15,82.79Zm-.29,8.14v11.38a17.42,17.42,0,0,1-.57,2.61l-2,4.71a1.82,1.82,0,0,1-2.88.65c-3.74-3.41-12.81-11.71-15.55-11.71-2.59,0-12.52,7.81-16.7,11.23a1.56,1.56,0,0,1-2.59-1L137.82,103a2.34,2.34,0,0,1-.14-1l-.58-11.23-.29-4.06c0-1.14,1.88-2.28,2.74-2.77l5.18-2.77a3.91,3.91,0,0,1,1.44-.32l23,.65c.29,0,.72.16,1,.16l8.92,3.58c.87.33.58,1.14.58,2.12Z"/><polygon points="142.63 113.54 145.84 121.35 144.01 130.62 174.44 134.03 170.47 122.65 173.37 112.24 158.84 101.34 142.63 113.54"/><path d="M141.56,113.37l1.83,3.26s14.38-13.83,15.45-13c1.07,1,14.53,10.9,14.53,11.39s1.23-3.09,1.23-3.09-12.39-11.71-15.45-11.39C156.24,101,141.56,113.37,141.56,113.37Z"/><path d="M177.2,136.47l-4.28-14.15,3.67-11.39-17.75-13-19.42,14.64,4.28,9-2.91,14.13Zm-34.57-22.93,16.21-12,14.53,10.74-2.9,10.41,3.82,11.55-30.44-3.58,1.84-9.11Z"/></g><g id="Horse_body" data-name="Horse body"><g id="Leg_Back_2" data-name="Leg Back 2"><path id="Leg_Back_Color" data-name="Leg Back Color" d="M191.22,188s-1.31,8.79-.82,12.69,2.12,10.41,3.26,12.69c1.13,2.44,6,10.41,9.59,13s12.69,6.35,12.69,6.35l-12.52,27-13.18,8.14,12.69,1.79,6.83-6.51s14.64-30.26,14.8-30.58-1.95-2.61-2.44-3.42a38.57,38.57,0,0,1-3.41-6.18c-.82-2.28-2.44-9.92-1.79-13.34.49-3.42,5.53-19.52,7-23.26C225.54,182.67,191.22,188,191.22,188Z"/><path id="Dark_Shadow" data-name="Dark Shadow" d="M188.61,194.88a70.62,70.62,0,0,0,1.63,8.13l.65,1.63s7.81,4.06,13.83,4.23,13.17-2.77,14.48-3.42c.81-1.95,4.39-14.15,4.39-14.15S214.15,198.13,188.61,194.88Z"/><path id="Leg_Back_Stroke" data-name="Leg Back Stroke" d="M226.52,229.2a89.08,89.08,0,0,1-4.88-10.41,31,31,0,0,1-.82-9.6,73.33,73.33,0,0,1,2.93-11.87c1.3-4.88,4.88-16.43,4.88-16.43l-41.16,3.25s-.16,1.63-2.11,9.6,6.67,24.56,8.78,28.47c2.28,3.9,9.44,9.11,11.55,10.41s6.35,2.76,6.35,2.92S201.14,258,201.14,258l-14.8,10.25-1.14,1.95,19,4.23,7.65-8.78,16.75-34.32A11,11,0,0,1,226.52,229.2Zm-16.6,34-6.83,6.51-12.36-1.79,12.85-8.14,12.52-27s-9.1-3.74-12.68-6.35-8.46-10.57-9.6-13a57.38,57.38,0,0,1-3.26-12.69c-.48-3.9.82-12.69.82-12.69s34.32-5.37,32.86-1.79-6.51,19.69-7,23.27c-.48,3.41,1.14,11.06,1.79,13.34a39.39,39.39,0,0,0,3.42,6.18c.49.81,2.6,2.93,2.44,3.41C224.56,233.1,209.92,263.2,209.92,263.2Z"/></g><g id="Leg_Back_1" data-name="Leg Back 1"><path id="Leg_Back_Color-2" data-name="Leg Back Color" d="M214.64,197.8s2,8.63,3.91,12.2c1.95,3.42,5.69,8.95,7.64,10.74s9.44,7.65,13.67,8.62c4.39,1.14,14.15,1.3,14.15,1.3l-1.3,29.77L242.3,270.52H253l6.18-9.44S262,227.57,262,227.25s-2.77-1.79-3.42-2.44a67.19,67.19,0,0,1-5.36-4.56c-1.63-1.79-5.86-8.46-6.51-11.87-.82-3.42-1.79-20.34-1.79-24.24S214.64,197.8,214.64,197.8Z"/><path id="Dark_Shadow-2" data-name="Dark Shadow" d="M214.64,205.12a80.79,80.79,0,0,0,4.39,7l1.14,1.3s8.79,1,14.48-1,11.22-7.32,12.2-8.45c0-2.12-1-14.81-1-14.81S239.69,198.94,214.64,205.12Z"/><polygon id="Color" class="cls-2" points="215.94 205.78 229.61 205.12 239.37 220.74 243.27 223.51 241.16 230.5 231.88 226.76 218.87 213.42 215.94 205.78"/><polygon id="Color_Shadow" data-name="Color Shadow" class="cls-2" points="215.45 206.1 218.71 213.75 233.02 212.61 230.26 203.99 215.45 206.1"/><path id="Leg_Stroke" data-name="Leg Stroke" d="M232.05,204.64s.65,4.55,2.6,7.15a69.14,69.14,0,0,0,6.51,6.84c1.14,1,4.55,3.25,4.55,3.25l-2.44,11.71-2.6-.81,2.11-8.46a37.91,37.91,0,0,1-6.34-5c-2.44-2.61-6.18-6.18-7.16-11.72C228.47,201.55,231.88,204,232.05,204.64Z"/><path id="Leg_Back_Stroke-2" data-name="Leg Back Stroke" d="M262.47,223.51a92.37,92.37,0,0,1-8.3-8,30.56,30.56,0,0,1-4.23-8.63c-.81-2.76-1.14-7.15-1.63-12.2s-1.3-17.08-1.3-17.08l-37.25,17.9s.33,1.62,1.46,9.76,15,20.49,18.55,23.42c3.42,2.93,12.2,5,14.48,5.53,2.44.49,7,.17,7,.49s-2.11,24.89-2.11,24.89l-11.88,12.69v2.11h17.57L262,263,265.23,225C265.23,224.65,263.61,224.48,262.47,223.51Zm-3.26,37.74L253,270.68H242.3l10.41-10.08,1.3-29.77s-9.92-.17-14.15-1.3c-4.4-1.14-11.72-6.84-13.67-8.63s-5.69-7.15-7.64-10.73c-2-3.42-3.91-12.2-3.91-12.2s30.1-17.41,30.1-13.51,1.13,20.83,1.79,24.24c.81,3.42,5,9.93,6.5,11.88a34.41,34.41,0,0,0,5.37,4.55c.81.49,3.42,2,3.42,2.44S259.21,261.25,259.21,261.25Z"/></g><g id="Front_Leg_1" data-name="Front Leg 1"><path id="Front_Leg_1_Color" data-name="Front Leg 1 Color" d="M127.77,144.61s-17.24-5.53-18.22-5.53-4.72,1.95-7.32,4.06-7.81,9.28-8.78,11.88S90,168.85,90,168.85l5.86,12.2,4.06-6.83-5.69-2.44s7.16-17.41,7.65-18.55,2.76-2.93,4.39.16,13.5,22.45,13.5,22.45l3.09-11.71,6.67-19.2Z"/><polygon id="Color-2" data-name="Color" class="cls-2" points="109.88 137.94 112.32 146.07 126.31 153.72 131.68 145.42 109.88 137.94"/><path id="Dark_Shadow-3" data-name="Dark Shadow" d="M124,141.84s-12.36,13.34-13.83,20.66c1.79,3.58,9.76,13.83,9.76,13.83l12.69-29.93Z"/><polygon id="Color_Shadow-2" data-name="Color Shadow" class="cls-2" points="124.03 142.49 116.71 149.16 123.38 152.91 131.03 144.61 124.03 142.49"/><polygon id="Stroke" points="125.66 152.91 112.81 145.42 110.53 138.1 107.6 138.75 109.39 146.89 124.19 156.16 125.66 152.91"/><path id="Front_Left_stroke" data-name="Front Left stroke" d="M98.33,170.64c-.49-.33.32-2.93.81-4.23.49-1.47,3.9-10.09,4.88-10.09s17.57,29.12,17.57,29.12l10.9-42.78s-22.78-6.84-23.91-7.16-10.9,4.55-14.81,11.22-6.83,21.64-6.83,22.45c-.16,1,8.62,18.71,8.62,18.71s8.14-14,8.46-14.31C104.35,173.08,99,171,98.33,170.64Zm-8.62-1.79s2.44-11.23,3.41-13.83,6.18-9.76,8.79-11.88,6.34-4.06,7.32-4.06,18.22,5.53,18.22,5.53l1.46.49-6.67,19.19L119.15,176s-11.88-19.2-13.5-22.45-3.91-1.31-4.39-.17-7.65,18.55-7.65,18.55l5.69,2.44-4.06,6.83Z"/></g><g id="Front_Leg_1-2" data-name="Front Leg 1"><path id="Front_Leg_1_Color-2" data-name="Front Leg 1 Color" d="M124.52,166.24s-12.53,13.18-13,14c-.48,1-.32,5.21.49,8.46s4.88,11.07,6.83,13.18c2,1.95,11.07,9.11,11.07,9.11h13.5L139,204.31l-4.72,4.07s-12.53-14-13.34-15-1.46-3.9,2.11-3.9,26-2.44,26-2.44L140,179.26l-14.31-14.32Z"/><polygon id="Color-3" data-name="Color" class="cls-2" points="110.85 179.42 119.15 180.72 132.16 171.45 127.12 162.99 110.85 179.42"/><path id="Dark_Shadow_1" data-name="Dark Shadow 1" d="M120.45,168.36S127,185.28,133,189.83c4.06,0,16.75-2.76,16.75-2.76l-21.47-24.4Z"/><polygon id="Color_Shadow-3" data-name="Color Shadow" class="cls-2" points="121.1 168.69 124.03 178.12 130.21 173.89 125.98 163.32 121.1 168.69"/><polygon id="Stroke-2" data-name="Stroke" points="131.19 171.61 118.83 180.07 111.34 178.93 110.69 181.86 118.66 183.81 133.47 174.54 131.19 171.61"/><path id="Front_Left_stroke-2" data-name="Front Left stroke" d="M135.25,204c-.48.32-2.44-1.63-3.41-2.61s-7.48-7.81-7-8.62,33.84-3.25,33.84-3.25L125,161.2s-16.11,17.57-16.92,18.38c-.65.82-.65,11.88,3.58,18.22s16.43,15.46,17.24,15.95,20.66.32,20.66.32l-9.27-14C140,199.76,135.74,203.66,135.25,204Zm-5.36,7s-9.11-7.16-11.07-9.11S112.64,192,112,188.69a23.19,23.19,0,0,1-.49-8.46c.49-1,13-14,13-14l1-1.13,14.32,14.31,9.11,7.81s-22.61,2.44-26,2.44-2.93,2.93-2.11,3.9,13.34,15,13.34,15l4.71-4.07,4.4,6.67H129.89Z"/></g><g id="Body-2" data-name="Body"><path id="Body-3" data-name="Body" d="M210.9,201.87c-10.74-.16-24.73-3.09-35.46-5.69-10.42-2.61-22.78-7.49-31.24-13.34-4.23-2.93-7.32-5.05-12.69-12.37a19.37,19.37,0,0,1-3.09-16.91l3.09-9.11c3.74-10.58,23.27-16.27,33.84-12.53,9.27,4.88,22,15,30.75,18.71,6,2.6,21.63,4.55,28.79,7.16,1.3.48,10.57,2.44,15.78,8.78,3.74,4.72,5.2,13,4.23,18.06-.33,2-4.23,8.62-6.51,10.57C235.3,197.64,224.24,201.87,210.9,201.87Z"/><path id="Body_Light_Shadow" data-name="Body Light Shadow" class="cls-2" d="M161.45,174.05s34,1.47,39.69,0,13.66.17,19.19,4.07c5.54,3.74,5,22.77,0,23.26s-12.68,2.28-26.19-.65-30.9-6.51-36.11-9.92S150.71,171.78,161.45,174.05Z"/><path id="Body_Dark_Shadow" data-name="Body Dark Shadow" class="cls-2" d="M161,180.07s12.85,7,17.57,8.46a67.82,67.82,0,0,0,21.8,2.28c7.15-.65,11.38,2.28,11.38,2.28s.82,9.27-2.27,9.11c-3.26-.17-30.59-4.07-30.59-4.07l-18.06-6.35-9.27-4.88C151.69,186.9,156.57,177.79,161,180.07Z"/><path id="Body_Stroke" data-name="Body Stroke" d="M244.9,167.87a23.87,23.87,0,0,0-13.5-12.2c-8.3-3.09-26.52-5.37-33.68-8.46-10.25-4.39-18.87-10.9-29.6-16.75-12.37-4.4-34.49,6.5-36.61,13.66l-4.71,6c0,.16,0,.16-.17.33-2.11,8.13-3.41,10.89-.81,16.26,4.07,8.62,9.92,15.46,11.39,16.27a134.82,134.82,0,0,0,36.6,16.11c12.36,3.09,29.77,5.2,42.3,4.55,14.8-.81,25.54-6.51,28.46-11.06a16.24,16.24,0,0,0,2.77-6.83A31.22,31.22,0,0,0,244.9,167.87Zm.16,16.76c-.32,2-4.23,8.62-6.51,10.57-3.25,2.6-14.31,6.83-27.49,6.67-10.73-.16-24.72-3.09-35.46-5.69-10.41-2.61-22.78-7.49-31.24-13.34-4.22-2.93-7.32-5.05-12.68-12.37a19.37,19.37,0,0,1-3.09-16.91l6.18-8.79c3.74-10.57,20.82-13.83,31.39-9.92,9.28,4.88,21.48,12,30.1,15.78,6,2.6,21.63,4.55,28.79,7.16,1.3.48,10.58,2.44,15.78,8.78C244.57,171.12,246,179.58,245.06,184.63Z"/></g><g id="Front_Disc" data-name="Front Disc"><circle id="Front_Large_Disc_Color" data-name="Front Large Disc Color" cx="156.24" cy="159.25" r="28.63"/><circle id="Front_Small_Disc_Color" data-name="Front Small Disc Color" class="cls-2" cx="156.24" cy="158.6" r="12.36"/></g><g id="Back_Disc" data-name="Back Disc"><circle id="Back_Large_Disc_Color" data-name="Back Large Disc Color" cx="221.64" cy="180.07" r="23.75"/><circle id="Back_Small_Disc" data-name="Back Small Disc" cx="221.64" cy="180.07" r="10.9"/><path id="Dark_Shadow-4" data-name="Dark Shadow" class="cls-2" d="M201.14,193.57a85.07,85.07,0,0,1,6-8c2-1.95,8.62-6.18,13-7.32s6.83-2.11,15.62-1.14a29.6,29.6,0,0,1,9.92,3.26,39,39,0,0,1,0,6.67c-.32,3.09-4.06,9.27-6.5,11.22a22.84,22.84,0,0,1-8.79,5.37c-3.42,1-5.37,2-8.95,1.63s-11.06-2.28-13.82-4.23A28.47,28.47,0,0,1,201.14,193.57Z"/><path id="White_Highlight" data-name="White Highlight" class="cls-2" d="M206.83,198.62s5.37,3.25,10.25,3.58a40.45,40.45,0,0,0,12-1.47c2.28-.81,7.48-3.74,8.95-5.53a32.77,32.77,0,0,0,4.06-5c.82-1.3,3.42-7.65,3.42-7.65a20.86,20.86,0,0,1-1,7.65,18.19,18.19,0,0,1-5.36,8,30.74,30.74,0,0,1-9.77,5.69,22.68,22.68,0,0,1-9.92,1A18.72,18.72,0,0,1,206.83,198.62Z"/></g><g id="Tail"><path d="M231.07,155.18a30.9,30.9,0,0,1,17.9,4.23c9.27,5.37,19.19,12.2,23.42,13.34s11.39,2.12,15.62,0,11.39-9.92,12.69-14.8c1.14-4.88,3.58-2.28,5,1.62,1.3,3.91,4.39,11.55,3.42,19.69s-3.58,14.64-9.6,19.36-17.57,5.85-23.43,4.06-12.69-5.36-15.61-8-9.6-11.38-10.42-12.36-4.06-8.62-5-10.41A40,40,0,0,0,231.07,155.18Z"/><path id="Tail_Stroke" data-name="Tail Stroke" d="M305.74,159.41c-1.3-3.9-3.74-6.5-5-1.62-1.14,4.88-8.46,12.68-12.69,14.8s-11.23,1.14-15.62,0c-4.23-1.14-14.31-8-23.42-13.34a30.9,30.9,0,0,0-17.9-4.23c9.11,6.18,13.18,15,14.15,16.59,1,1.79,4.23,9.44,5.05,10.41s7.32,9.76,10.41,12.37c2.93,2.6,9.6,6,15.62,8,5.85,1.95,17.56.65,23.42-4.07s8.62-11.22,9.6-19.36C310.13,171,307,163.32,305.74,159.41Zm-65.07,0a70.23,70.23,0,0,1,15.45,8.3,56.29,56.29,0,0,0,14.16,7.81,25.12,25.12,0,0,0,10.24,1.79,22,22,0,0,0,13-4.07c4.07-2.93,7.48-9.11,7.48-9.11a40,40,0,0,1,0,8,28.63,28.63,0,0,1-3.74,9.44c-1.79,2.92-5.86,7.64-11.87,8.13s-11.39,0-17.57-5.86-8.63-8.78-11.23-10.73-8-4.4-9.43-5.7A45.69,45.69,0,0,1,240.67,159.41Zm65.07,20.66c-1,4.23-3.25,11.71-8.13,15.29s-9.28,5.86-19.69,3.75-15-7.49-17.08-9.44-5.86-7.32-7.16-9.27a77,77,0,0,0-5.37-7.81,15.79,15.79,0,0,1,4.23,1.95c2.28,1.47,5.37,5,7,6.83s5.53,5.86,8,7.32a38,38,0,0,0,11.23,4.72c4.22.81,9.27,0,11.38-1.14s7.49-3.41,10.41-9.11c2.77-5.53,4.4-11.87,4.4-14S306.72,176,305.74,180.07Z"/><path id="Tail_Pink" data-name="Tail Pink" d="M240.67,159.41a70.23,70.23,0,0,1,15.45,8.3,56.29,56.29,0,0,0,14.16,7.81,25.12,25.12,0,0,0,10.24,1.79,22,22,0,0,0,13-4.07c4.07-2.93,7.48-9.11,7.48-9.11a40,40,0,0,1,0,8,28.63,28.63,0,0,1-3.74,9.44c-1.79,2.92-5.86,7.64-11.87,8.13-6.19.49-11.39,0-17.57-5.86s-8.63-8.78-11.23-10.73-8-4.4-9.43-5.7A40.42,40.42,0,0,1,240.67,159.41Z"/><path id="Tail_Pink_Shadow" data-name="Tail Pink Shadow" class="cls-2" d="M259.54,174.54a44.92,44.92,0,0,0,10.09,5.69c6.5,2.77,16.1,2.93,18.54,2.12,2.44-.65,6.83-4.23,8.13-6.51s2.44-3.9,3.26-5.53c.65-1.63,1.46-3.9,1.46-3.9s-.16,6.5-1.46,9.92-4.72,8.46-7.32,10.25-8.14,3.58-12.37,2.6c-4.23-1.14-8.78-3.25-11.22-5.53S261,176.33,259.54,174.54Z"/><path id="Tail_Grey" data-name="Tail Grey" d="M248.31,172.75a15.79,15.79,0,0,1,4.23,1.95c2.28,1.47,5.37,5.05,7,6.84s5.53,5.85,8,7.32,7,3.9,11.23,4.71,9.27,0,11.38-1.13,7.49-3.42,10.41-9.11,4.4-11.88,4.4-14,1.95,6.67,1,10.89-3.25,11.72-8.13,15.3c-5,3.58-9.27,5.85-19.69,3.74-10.41-2-15-7.49-17.08-9.44a88.8,88.8,0,0,1-7.15-9.27C252.54,178.61,250.59,175.68,248.31,172.75Z"/><path id="Tail_White_Highlight" data-name="Tail White Highlight" class="cls-2" d="M278.25,199.11a47.38,47.38,0,0,0,9.27-.66,24.37,24.37,0,0,0,11.71-7.15c3.26-3.58,4.56-8.46,5.37-11.07a40.4,40.4,0,0,0,1.14-7,39.24,39.24,0,0,1,.16,8.3c-.49,2.44-1.95,8.46-5.37,11.71s-6.18,5.53-11.22,6.51A23,23,0,0,1,278.25,199.11Z"/></g></g><g id="Lt_Hand" data-name="Lt Hand"><g id="Shoulder"><path d="M176.83,87.46l5.38-4.12s5.3.46,4.63,5.36c-1.11.84-5.15,5-5.15,5Z"/><path d="M180.47,86.72a4.24,4.24,0,1,0,2.47,5.2A4.13,4.13,0,0,0,180.47,86.72Zm-2.32,7.45a3.58,3.58,0,0,1-2.2-4.43,3.48,3.48,0,0,1,4.33-2.4,3.58,3.58,0,0,1-2.13,6.83Z"/><ellipse class="cls-2" cx="179.26" cy="90.6" rx="3.58" ry="3.42" transform="translate(39.47 234.83) rotate(-72.71)"/><ellipse class="cls-3" cx="179.47" cy="90.49" rx="2.44" ry="2.11" transform="translate(39.71 234.94) rotate(-72.71)"/><ellipse cx="179.46" cy="89.98" rx="2.11" ry="1.95" transform="translate(40.2 234.57) rotate(-72.71)"/></g><g id="Arm"><polygon points="186.04 89.3 182.24 94.25 205.48 115.63 209.41 109.7 186.04 89.3"/><polygon class="cls-2" points="184.01 91.91 207.45 112.66 205.48 115.63 182.24 94.25 184.01 91.91"/><path d="M186.37,87.7l-5.54,6.62,25.06,22.8,4.83-7.7Zm19.11,27.93L182.24,94.25,186,89.46l23.42,20.24Z"/></g></g><g id="Lt_Hand-2" data-name="Lt Hand"><g id="Shoulder-2" data-name="Shoulder"><path d="M176.83,87.46l5.38-4.12s5.3.46,4.63,5.36c-1.11.84-5.15,5-5.15,5Z"/><path d="M180.47,86.72a4.24,4.24,0,1,0,2.47,5.2A4.13,4.13,0,0,0,180.47,86.72Zm-2.32,7.45a3.58,3.58,0,0,1-2.2-4.43,3.48,3.48,0,0,1,4.33-2.4,3.58,3.58,0,0,1-2.13,6.83Z"/><ellipse class="cls-2" cx="179.26" cy="90.6" rx="3.58" ry="3.42" transform="translate(39.47 234.83) rotate(-72.71)"/><ellipse class="cls-3" cx="179.47" cy="90.49" rx="2.44" ry="2.11" transform="translate(39.71 234.94) rotate(-72.71)"/><ellipse cx="179.46" cy="89.98" rx="2.11" ry="1.95" transform="translate(40.2 234.57) rotate(-72.71)"/></g><g id="Arm-2" data-name="Arm"><polygon points="186.04 89.3 182.24 94.25 205.48 115.63 209.41 109.7 186.04 89.3"/><polygon class="cls-2" points="184.01 91.91 207.45 112.66 205.48 115.63 182.24 94.25 184.01 91.91"/><path d="M186.37,87.7l-5.54,6.62,25.06,22.8,4.83-7.7Zm19.11,27.93L182.24,94.25,186,89.46l23.42,20.24Z"/></g><g id="Wrist"><path d="M184.75,106.87l-.7.86,2.49,6.7,22.65,1.76s3.67-4-1.23-8.08C206.16,108.06,184.75,106.87,184.75,106.87Z"/><polygon class="cls-2" points="184.54 108.52 209.75 110.45 210.37 113.19 209.04 116.2 186.4 114.44 186.33 110.86 184.54 108.52"/><path d="M208.07,107.45l-24.15-1.83-1.4,1.71,3.22,8.77,23.68,1.38S215.84,111.72,208.07,107.45Zm1,8.75-22.65-1.76-2.49-6.7.7-.86s21.41,1.19,23.06,1.25C212.71,112.23,209,116.2,209,116.2Z"/></g><g id="Finger"><g id="Thumb"><polygon points="182.02 108.41 177.17 112.82 176.53 118.17 177.58 120.97 182.16 109.06 182.02 108.41"/><polygon class="cls-2" points="180.35 109.99 177.83 112.68 177.31 119.01 177.58 120.97 179.13 112.56 180.35 109.99"/><path d="M182.38,107.28l-5.69,5.2-.65,5.68,1.66,4.28,5.3-14ZM177.58,121l-1.05-3,.64-5.19,4.86-4.57.14.65Z"/></g><path d="M184.2,106.36l-4.57,5.72L178,122.29l.43,7.66,1-.62.17-5.86,2-7.42,3.21,1.56.32,5.87L185,128l.81,0,1.13-5.17.2-6.51,2.63-6.59-1.34-4C188.44,106.16,186,105,184.2,106.36Z"/><path class="cls-2" d="M185.13,107.85l-3.53,4-.73,2.42,4.33,2.41,2-.27,2.63-6.59-2-3.32C187.77,106.63,185.33,106.55,185.13,107.85Z"/><polygon class="cls-2" points="181.37 113.92 180.7 114.72 179.01 122.32 179.28 129.49 179.78 129.18 179.97 122.67 181.99 115.08 181.37 113.92"/><polygon class="cls-2" points="185.37 116.32 185.73 120.56 185.5 128.37 185.98 128.54 187.29 122.72 187.49 116.06 185.37 116.32"/><path d="M189.1,105.69a5.42,5.42,0,0,0-5.7.16L179,111.74l-1.77,10.36.89,8.65,2.14-1.07.19-6.18,1.65-6.3,2.09.88.48,5.71-.15,5.2,1.78,0,1.48-6,.19-6.34L190.6,110Zm-1.95,10.85L187,123l-1.13,5.18-.81,0,.13-4.55-.31-5.87-3.21-1.56-2,7.43-.17,5.85-1,.62-.42-7.66,1.6-10.2,4.56-5.73c1.84-1.41,4.24-.2,4.24-.2l1.35,4Z"/></g></g><g id="Rt_Hand" data-name="Rt Hand"><g id="Arm-3" data-name="Arm"><path d="M130.93,87.91l2.71,8.55,5.2-1.68,3.5-10.48-3.43-1.92a2.2,2.2,0,0,1,0,1.64,7.4,7.4,0,0,1-2,2.6,12.34,12.34,0,0,1-3.24,1.68A5.3,5.3,0,0,1,130.93,87.91Z"/><ellipse id="Elbow_Grey" data-name="Elbow Grey" class="cls-2" cx="134.93" cy="85.16" rx="4.23" ry="1.79" transform="translate(-24.43 92.97) rotate(-35.06)"/><ellipse id="Elbow_joint" data-name="Elbow joint" cx="134.76" cy="85.28" rx="2.28" ry="1.14" transform="translate(-24.54 92.89) rotate(-35.06)"/><path id="ElbowStroke" d="M138.75,82.37c-.73-1-3-.75-5.13.87-2.09,1.45-3.25,3.64-2.52,4.68s3,.75,5.13-.87C138.48,85.61,139.48,83.41,138.75,82.37Zm-2.82,4.33c-1.9,1.31-4.07,1.78-4.64.91s.54-2.56,2.46-4c1.91-1.31,4.07-1.78,4.65-.92S137.85,85.23,135.93,86.7Z"/><path d="M130.89,88.61s-17.48,25.13-18.5,25.7,3,7.27,6.45,2.83S136.29,94.29,136.48,94s.83-.25.9-1.06S135.65,88.36,130.89,88.61Z"/><path class="cls-4" d="M130.65,87.61s-16.07,24-19.4,26.6c-3.49,2.65,4.72,7.91,8.39,3.16s16.78-22.74,18-23.45C138.65,93.35,138.4,88.6,130.65,87.61Zm5.52,6.18c-.36.3-14,18.25-17.45,22.85-3.48,4.44-6.9-1.4-6-2.14,1-.57,18.31-25.39,18.31-25.39,4.74-.08,5.81,2.78,5.74,3.59S136.5,93.66,136.17,93.79Z"/><path class="cls-2" d="M136.05,91.34,116.57,117l.73,1,19-24.18A2.12,2.12,0,0,0,136.05,91.34Z"/></g><g id="Fingers_Right" data-name="Fingers Right"><g id="Top_Part" data-name="Top Part"><polygon points="111.01 111.25 112.2 112.66 113.36 112.43 116.79 112.4 114.58 111.56 111.01 111.25"/><polygon class="cls-2" points="112.12 111.67 111.84 111.16 114.58 111.56 116.66 112.06 113.04 112.41 112.12 111.67"/><path d="M114.77,111.25l-4.7-.4,2.09,2.3,1.5-.37h3.75l0-.49Zm-1.41,1.18-1.16.23L111,111.25l3.57.31,2,.82Z"/></g><polygon points="103.89 89.42 109.25 97.39 109.48 104.27 112.01 111.01 116.94 116.49 121.91 125.24 122.3 128.37 124.89 130.55 131.86 148.45 136.69 155.06 141.91 164.65 140.22 165.32 137.58 159.87 135.62 156.11 130.48 149.31 123.5 133.37 121.16 130.24 119.31 125.02 115.07 117.31 109.74 110.82 107.98 104.63 107.53 98.39 103.73 91.21 99.94 87.78 97.49 83.98 94.51 78.67 92.09 70.63 94.67 74.93 96.39 79.65 103.89 89.42"/><g id="Finger_1" data-name="Finger 1"><polygon points="110.15 111.83 108.32 114.13 110.46 117.74 116.06 122.95 117.35 121.26 112.98 115.01 110.15 111.83"/><polygon class="cls-2" points="109.43 112.59 112.13 115.43 116.66 121.69 113.04 120.08 110.46 117.74 108.32 114.13 109.43 112.59"/><path d="M113.49,114.73l-3.41-4-2.57,3.38,2.6,4,5.91,5.4,2-2.28Zm2.57,8.22-5.6-5.21-2.3-3.63,1.84-2.45,3,3.19,4.37,6.25Z"/></g><g id="Finger_2" data-name="Finger 2"><polygon points="108.73 116.94 107.53 117.65 107.07 121.2 111.95 123.25 117.91 124.25 118.55 122.5 107.83 118 109.33 117.64 108.73 116.94"/><polygon class="cls-2" points="107.25 119.1 112.12 121.31 118.33 123.14 117.91 124.25 111.95 123.25 107.07 121.2 107.25 119.1"/><path d="M113,120.08l-4.08-2,1.15-.07L109,116.3l-1.88,1-.5,4,5.33,2.57,6.6,1,.72-2.71Zm4.87,4.17-6.12-1-4.88-2,.45-3.39,1.36-.7.43.69-1.5.36,10.72,4.5Z"/></g><g id="Thumb-2" data-name="Thumb"><polygon points="120.03 112.67 119.06 116.51 116.91 118.77 118.23 120.52 120.89 117.97 122.37 114.01 121.17 112.77 120.03 112.67"/><polygon class="cls-2" points="121.17 112.77 120.39 116.13 117.5 119.48 118.23 120.52 120.89 117.97 122.37 114.01 121.17 112.77"/><path d="M121.56,112l-1.81.18L118.61,116l-2.34,2.58,1.87,2.93,3.39-3.3,1.66-4.27Zm-.67,6-2.82,2.53-1.16-1.73,2.15-2.26,1-3.84,1.13.1,1.19,1.4Z"/></g></g></g></g><g id="Head"><path d="M149.41,56.6l-2.77,1.95L146,64.41l2.12,3.74-1.47,21.64s3.26,5.37,11.88,5,13.34-5,13.34-5l-2.28-20.66,1.79-4.72-.65-5.69-2.44-2-18.87-.16Z"/><g id="Bread_Lines" data-name="Bread Lines"><line class="cls-5" x1="158.35" y1="94.83" x2="158.35" y2="85.39"/><line class="cls-5" x1="159.98" y1="94.83" x2="159.98" y2="87.67"/><line class="cls-5" x1="161.61" y1="94.83" x2="161.61" y2="90.27"/><line class="cls-5" x1="156.73" y1="94.83" x2="156.73" y2="87.67"/><line class="cls-5" x1="155.1" y1="94.83" x2="155.1" y2="90.27"/></g><polygon points="145.99 65.39 148.11 70.43 149.41 59.85 150.38 58.88 154.61 58.88 167.3 58.88 168.28 60.34 169.25 71.57 172.02 65.39 171.37 58.88 168.28 55.95 149.73 55.95 146.32 57.9 145.99 65.39"/><path d="M170.72,68.8l2.11-4.55L172,57.58l-3.74-2.44H149.41l-3.74,2.44-1.14,6.67,2.27,3.9L145,90s3.25,6.51,13.5,6.18S173,89.79,173,89.79Zm-12.37,26c-8.62.33-11.87-5-11.87-5l1.46-21.64-2.11-3.74.81-5.69,2.77-2h18.87l2.44,2,.65,5.69-1.79,4.72,2.28,20.66A22.3,22.3,0,0,1,158.35,94.83Z"/><polygon points="148.92 69.45 149.57 59.2 167.3 58.88 168.28 60.34 168.44 71.24 165.51 70.43 154.94 70.1 150.71 70.43 149.08 71.73 148.92 69.45"/><polygon class="cls-2" points="149.41 68.8 151.69 67.66 166.33 67.66 168.28 68.8 168.28 71.24 165.84 70.1 151.52 70.1 149.41 71.57 149.41 68.8"/><polygon class="cls-2" points="149.41 62.46 151.69 61.32 166.33 61.32 168.28 62.46 168.28 63.6 165.84 62.46 151.52 62.46 149.41 63.92 149.41 62.46"/><polygon class="cls-2" points="149.41 65.87 151.69 64.57 166.33 64.57 168.28 65.87 168.28 66.85 165.84 65.71 151.52 65.71 149.41 67.17 149.41 65.87"/><polygon class="cls-6" points="157.7 58.88 155.75 67.83 158.35 69.78 159.17 69.78 161.93 67.66 160.31 58.88 157.7 58.88"/><polygon points="149.08 71.73 148.59 79.7 151.03 81.17 158.35 82.79 165.68 81.17 168.93 80.19 168.93 76.12 168.6 72.22 166.81 70.92 162.91 70.43 152.01 70.43 150.38 70.43 149.08 71.73"/><polygon points="151.2 70.43 149.73 72.06 168.12 71.89 166.65 70.43 151.2 70.43"/><path d="M167.3,57.9H150.38a1.78,1.78,0,0,0-1.79,1.63l-1.13,19.85a1.74,1.74,0,0,0,1.3,1.78l9.11,2.12h.81l9.76-2.12a1.61,1.61,0,0,0,1.3-1.78l-.65-19.85A1.91,1.91,0,0,0,167.3,57.9Zm-9,23.92-8.13-1.63a1.62,1.62,0,0,1-1.3-1.79l1-17.57a1.67,1.67,0,0,1,1.79-1.63h14.47A1.77,1.77,0,0,1,168,60.83l.82,17.73a1.74,1.74,0,0,1-1.47,1.79L159.17,82A1.81,1.81,0,0,0,158.35,81.82Z"/><circle class="cls-7" cx="154.13" cy="71.4" r="1.63"/><circle class="cls-7" cx="163.24" cy="71.4" r="1.63"/><path d="M149.25,73l1.62-1.46a.83.83,0,0,1,.65-.33h14.64a1.16,1.16,0,0,1,.65.33l1.63,1.62c.49.49.16-1,.16-1.79v-.16a.85.85,0,0,0-.32-.65l-1.3-.81a.59.59,0,0,0-.49-.17H151.2a.58.58,0,0,0-.49.17l-1.14,1a1.28,1.28,0,0,0-.32.65h0C148.92,72.06,148.76,73.52,149.25,73Z"/><g id="Tuppi"><circle cx="159.33" cy="47.49" r="2.28"/><g id="Bun1"><path d="M164.05,51.88h-9.27a2.33,2.33,0,0,0-2.28,2.28v.33a2.32,2.32,0,0,0,2.28,2.27h9.27a2.32,2.32,0,0,0,2.28-2.27v-.33A2.23,2.23,0,0,0,164.05,51.88Zm.49,2.28a1.4,1.4,0,0,1-1.3,1.3h-7.81a1.4,1.4,0,0,1-1.3-1.3h0a1.4,1.4,0,0,1,1.3-1.3h7.81a1.28,1.28,0,0,1,1.3,1.3Z"/><path d="M163.24,55.46h-7.81a1.4,1.4,0,0,1-1.3-1.3h0a1.4,1.4,0,0,1,1.3-1.3h7.81a1.4,1.4,0,0,1,1.3,1.3h0A1.2,1.2,0,0,1,163.24,55.46Z"/></g><g id="Bun1-2" data-name="Bun1"><path d="M164.05,47.33h-9.27a2.32,2.32,0,0,0-2.28,2.28v.32a2.32,2.32,0,0,0,2.28,2.28h9.27a2.33,2.33,0,0,0,2.28-2.28v-.32A2.22,2.22,0,0,0,164.05,47.33Zm.49,2.44a1.4,1.4,0,0,1-1.3,1.3h-7.81a1.4,1.4,0,0,1-1.3-1.3h0a1.4,1.4,0,0,1,1.3-1.3h7.81a1.28,1.28,0,0,1,1.3,1.3Z"/><path d="M163.24,51.07h-7.81a1.4,1.4,0,0,1-1.3-1.3h0a1.4,1.4,0,0,1,1.3-1.3h7.81a1.4,1.4,0,0,1,1.3,1.3h0A1.28,1.28,0,0,1,163.24,51.07Z"/></g></g></g></g></g></svg>