<svg xmlns="http://www.w3.org/2000/svg" fill="none" viewBox="0 0 100 100" height="100" width="100">
<path fill="#2F2E41" d="M28.8407 82.0656C30.3798 82.0656 31.6275 81.5986 31.6275 81.0225C31.6275 80.4465 30.3798 79.9795 28.8407 79.9795C27.3016 79.9795 26.054 80.4465 26.054 81.0225C26.054 81.5986 27.3016 82.0656 28.8407 82.0656Z"></path>
<path fill="#2F2E41" d="M35.5289 81.9269C37.068 81.9269 38.3157 81.4599 38.3157 80.8838C38.3157 80.3078 37.068 79.8408 35.5289 79.8408C33.9899 79.8408 32.7422 80.3078 32.7422 80.8838C32.7422 81.4599 33.9899 81.9269 35.5289 81.9269Z"></path>
<path fill="#2F2E41" d="M44.4077 64.3953C47.0411 62.8801 48.7895 60.9829 48.313 60.1577C47.8364 59.3326 45.3152 59.892 42.6818 61.4073C40.0484 62.9225 38.2999 64.8197 38.7765 65.6449C39.2531 66.47 41.7742 65.9106 44.4077 64.3953Z"></path>
<path fill="#2F2E41" d="M41.9357 68.1107C42.9095 62.1213 38.8342 56.4781 32.8334 55.5062C26.8325 54.5342 21.1784 58.6016 20.2046 64.591C19.2308 70.5803 23.3061 76.2236 29.3069 77.1955C35.3078 78.1675 40.9618 74.1 41.9357 68.1107Z"></path>
<path fill="#2F2E41" d="M29.3981 74.9731H26.054V80.953H29.3981V74.9731Z"></path>
<path fill="#2F2E41" d="M36.0863 74.9731H32.7422V80.953H36.0863V74.9731Z"></path>
<path fill="white" d="M31.3485 67.3244C33.4263 67.3244 35.1106 65.6432 35.1106 63.5694C35.1106 61.4957 33.4263 59.8145 31.3485 59.8145C29.2708 59.8145 27.5864 61.4957 27.5864 63.5694C27.5864 65.6432 29.2708 67.3244 31.3485 67.3244Z"></path>
<path fill="#3F3D56" d="M31.3485 64.821C32.0411 64.821 32.6026 64.2606 32.6026 63.5694C32.6026 62.8781 32.0411 62.3177 31.3485 62.3177C30.6559 62.3177 30.0945 62.8781 30.0945 63.5694C30.0945 64.2606 30.6559 64.821 31.3485 64.821Z"></path>
<path fill="#E6E6E6" d="M20.3925 56.1336C19.5037 52.1607 22.3448 48.1462 26.7384 47.167C31.132 46.1878 35.4143 48.6147 36.3031 52.5876C37.1919 56.5606 34.2801 58.0258 29.8865 59.005C25.4929 59.9842 21.2813 60.1065 20.3925 56.1336Z"></path>
<path fill="#2F2E41" d="M23.6448 63.607C24.0538 62.7465 22.1588 60.9949 19.4124 59.6948C16.666 58.3947 14.1081 58.0384 13.6992 58.899C13.2902 59.7595 15.1851 61.511 17.9316 62.8111C20.678 64.1112 23.2359 64.4675 23.6448 63.607Z"></path>
<path fill="white" d="M25.6628 70.3143C25.6628 71.3896 28.4368 73.513 31.515 73.513C34.5932 73.513 37.4793 70.4856 37.4793 69.4103C37.4793 68.335 34.5931 69.6189 31.515 69.6189C28.4369 69.6189 25.6628 69.239 25.6628 70.3143Z"></path>
<path fill="#2F2E41" d="M69.4527 82.0656C70.9918 82.0656 72.2394 81.5986 72.2394 81.0225C72.2394 80.4465 70.9918 79.9795 69.4527 79.9795C67.9137 79.9795 66.666 80.4465 66.666 81.0225C66.666 81.5986 67.9137 82.0656 69.4527 82.0656Z"></path>
<path fill="#2F2E41" d="M62.7647 81.9269C64.3038 81.9269 65.5515 81.4599 65.5515 80.8838C65.5515 80.3078 64.3038 79.8408 62.7647 79.8408C61.2257 79.8408 59.978 80.3078 59.978 80.8838C59.978 81.4599 61.2257 81.9269 62.7647 81.9269Z"></path>
<path fill="#2F2E41" d="M59.5169 65.6448C59.9934 64.8197 58.245 62.9225 55.6115 61.4073C52.9781 59.8921 50.4569 59.3326 49.9804 60.1578C49.5038 60.9829 51.2522 62.8801 53.8857 64.3953C56.5191 65.9105 59.0403 66.4699 59.5169 65.6448Z"></path>
<path fill="#2F2E41" d="M67.2232 77.3371C73.3025 77.3371 78.2308 72.4183 78.2308 66.3507C78.2308 60.283 73.3025 55.3642 67.2232 55.3642C61.1438 55.3642 56.2156 60.283 56.2156 66.3507C56.2156 72.4183 61.1438 77.3371 67.2232 77.3371Z"></path>
<path fill="#2F2E41" d="M72.2393 74.9731H68.8953V80.953H72.2393V74.9731Z"></path>
<path fill="#2F2E41" d="M65.5513 74.9731H62.2073V80.953H65.5513V74.9731Z"></path>
<path fill="white" d="M64.6444 67.3244C66.7222 67.3244 68.4066 65.6432 68.4066 63.5694C68.4066 61.4957 66.7222 59.8145 64.6444 59.8145C62.5667 59.8145 60.8823 61.4957 60.8823 63.5694C60.8823 65.6432 62.5667 67.3244 64.6444 67.3244Z"></path>
<path fill="#3F3D56" d="M63.7377 63.9409C64.2291 63.4509 64.2322 62.6589 63.7448 62.1719C63.2573 61.685 62.4638 61.6874 61.9724 62.1774C61.4811 62.6674 61.4779 63.4593 61.9654 63.9463C62.4529 64.4333 63.2463 64.4308 63.7377 63.9409Z"></path>
<path fill="#6C63FF" d="M68.407 59.005C64.0134 58.0258 61.1016 56.5605 61.9904 52.5876C62.8792 48.6147 67.1615 46.1878 71.5551 47.167C75.9487 48.1461 78.7899 52.1606 77.9011 56.1335C77.0122 60.1065 72.8006 59.9842 68.407 59.005Z"></path>
<path fill="#2F2E41" d="M78.7341 74.7254C79.6564 74.481 79.7715 71.9058 78.9912 68.9736C78.2109 66.0414 76.8307 63.8626 75.9084 64.1071C74.9862 64.3515 74.8711 66.9268 75.6514 69.8589C76.4317 72.7911 77.8118 74.9699 78.7341 74.7254Z"></path>
<path fill="white" d="M64.7296 69.6192C62.7088 69.6192 60.814 68.3353 60.814 69.4106C60.814 70.4859 62.7087 73.5132 64.7296 73.5132C66.7505 73.5132 68.5717 71.3899 68.5717 70.3146C68.5717 69.2393 66.7505 69.6192 64.7296 69.6192Z"></path>
<path fill="#6C63FF" d="M50.5038 48.1346H49.5263C48.6506 48.1336 47.811 47.786 47.1918 47.168C46.5726 46.55 46.2243 45.712 46.2233 44.838V44.0189C46.2233 41.99 46.6085 40.2912 47.3681 38.9698C48.2887 37.4326 49.3627 35.9923 50.5737 34.6709C51.3777 33.864 52.1072 32.9864 52.7534 32.0487C53.217 31.3203 53.4563 30.4722 53.4417 29.6093C53.4417 27.5741 52.1133 26.5847 49.3803 26.5847C47.8642 26.6018 46.3578 26.8275 44.9036 27.2554C44.3427 27.4152 43.7524 27.4428 43.179 27.3362C42.6056 27.2297 42.0649 26.9917 41.5993 26.6411C41.1337 26.2905 40.756 25.8368 40.4959 25.3158C40.2358 24.7948 40.1004 24.2206 40.1004 23.6385V21.9803C40.0972 21.2665 40.3015 20.5671 40.6886 19.9668C41.0756 19.3666 41.6288 18.8913 42.2811 18.5986C44.8495 17.5046 47.6193 16.9607 50.4115 17.0022C53.3365 17.0022 55.977 17.4926 58.2599 18.4596C60.5468 19.4288 62.3537 20.7955 63.6301 22.5218C64.9028 24.2358 65.5792 26.3181 65.5563 28.4514C65.5563 30.7422 64.9297 32.7374 63.6939 34.3817C62.4716 36.0092 60.7194 37.7909 58.486 39.6776C57.3093 40.6544 56.1942 41.7029 55.1471 42.8171C54.4708 43.5441 53.9929 44.4323 53.759 45.3965C53.6287 46.1635 53.2301 46.8596 52.6341 47.3609C52.0381 47.8622 51.2833 48.1364 50.5038 48.1346V48.1346Z"></path>
<path fill="#6C63FF" d="M49.9603 63.6376H49.8314C48.2085 63.6365 46.6524 62.9924 45.5052 61.8466C44.358 60.7009 43.7136 59.1474 43.7136 57.5276C43.7136 55.9078 44.358 54.3543 45.5052 53.2086C46.6524 52.0628 48.2085 51.4187 49.8314 51.4176H49.9603C50.7646 51.4171 51.5611 51.5747 52.3042 51.8816C53.0474 52.1884 53.7227 52.6384 54.2916 53.2058C54.8605 53.7732 55.3118 54.4469 55.6197 55.1885C55.9276 55.93 56.086 56.7249 56.086 57.5276C56.086 58.3303 55.9276 59.1252 55.6197 59.8667C55.3118 60.6083 54.8605 61.282 54.2916 61.8494C53.7227 62.4168 53.0474 62.8668 52.3042 63.1736C51.5611 63.4805 50.7646 63.6381 49.9603 63.6376Z"></path>
<path fill="#CCCCCC" d="M89.7444 82.1817H10.2556C10.1878 82.1817 10.1228 82.1548 10.0749 82.1069C10.0269 82.0589 10 81.9939 10 81.9261C10 81.8583 10.0269 81.7933 10.0749 81.7453C10.1228 81.6974 10.1878 81.6705 10.2556 81.6705H89.7444C89.8122 81.6705 89.8772 81.6974 89.9251 81.7453C89.9731 81.7933 90 81.8583 90 81.9261C90 81.9939 89.9731 82.0589 89.9251 82.1069C89.8772 82.1548 89.8122 82.1817 89.7444 82.1817Z"></path>
<path fill="#F2F2F2" d="M25.6473 38.976C26.5601 38.976 27.3001 38.2374 27.3001 37.3262C27.3001 36.4151 26.5601 35.6765 25.6473 35.6765C24.7344 35.6765 23.9944 36.4151 23.9944 37.3262C23.9944 38.2374 24.7344 38.976 25.6473 38.976Z"></path>
</svg>
