<svg width="100" height="100" viewBox="0 0 100 100" fill="none" xmlns="http://www.w3.org/2000/svg">
<path d="M85.2148 57.3787C85.1191 57.1669 85.0588 56.9291 85.0381 56.6822C85.0174 56.4353 85.0368 56.1853 85.0949 55.9496C85.153 55.714 85.2485 55.4985 85.3745 55.3185C85.5006 55.1384 85.6542 54.998 85.8245 54.9073L85.6476 48.8713L87.6261 50.4939L87.4907 55.9769C87.584 56.3757 87.5663 56.807 87.4411 57.1893C87.3158 57.5715 87.0917 57.8781 86.8112 58.0509C86.5306 58.2237 86.2132 58.2507 85.9189 58.1268C85.6247 58.0029 85.3742 57.7367 85.2148 57.3787Z" fill="#A0616A"/>
<path d="M87.8554 53.4658L86.0965 53.8475C86.0227 53.8635 85.9472 53.8593 85.8746 53.835C85.802 53.8108 85.7337 53.7671 85.6737 53.7064C85.6137 53.6457 85.5633 53.5693 85.5254 53.4817C85.4875 53.3942 85.4629 53.2972 85.4531 53.1965L84.7089 45.5846L81.032 38.7499C80.8958 38.4968 80.7993 38.2085 80.7483 37.9027C80.6974 37.597 80.693 37.2803 80.7356 36.9722C80.7782 36.6641 80.8668 36.3711 80.996 36.1113C81.1251 35.8515 81.2921 35.6304 81.4866 35.4616C81.8642 35.1338 82.3222 35.0231 82.7599 35.1541C83.1976 35.285 83.5791 35.6467 83.8204 36.1597L87.5757 44.1416L88.3232 52.6243C88.328 52.6784 88.3285 52.7331 88.3248 52.7874C88.3132 52.9553 88.2608 53.1131 88.1758 53.236C88.0907 53.3588 87.978 53.4397 87.8554 53.4658Z" fill="#6C63FF"/>
<path d="M81.7918 81.7185H80.266L79.5402 73.7249L81.792 73.725L81.7918 81.7185Z" fill="#A0616A"/>
<path d="M79.176 81.1265H82.1186V83.643H77.3233C77.3233 82.9756 77.5185 82.3355 77.866 81.8635C78.2134 81.3916 78.6847 81.1265 79.176 81.1265Z" fill="#2F2E41"/>
<path d="M88.2291 78.1713L87.0891 79.5487L82.8396 73.8575L84.3176 72.1987L88.2291 78.1713Z" fill="#A0616A"/>
<path d="M85.9851 80.0901L88.1837 77.4337L89.4151 79.314L85.8322 83.6429C85.6705 83.396 85.5462 83.1083 85.4664 82.7961C85.3865 82.4839 85.3527 82.1534 85.3669 81.8235C85.3811 81.4936 85.443 81.1707 85.5491 80.8733C85.6552 80.5759 85.8033 80.3098 85.9851 80.0901Z" fill="#2F2E41"/>
<path d="M66.4588 36.0085C66.637 35.9521 66.8221 35.9494 67.0011 36.0007C67.1801 36.052 67.3487 36.156 67.4949 36.3053C67.6412 36.4547 67.7615 36.6458 67.8475 36.8651C67.9335 37.0845 67.983 37.3268 67.9926 37.5749L72.2648 39.2535L70.5064 41.2907L66.7191 39.3843C66.4111 39.3785 66.1153 39.2195 65.8879 38.9374C65.6604 38.6552 65.5171 38.2695 65.485 37.8534C65.4529 37.4373 65.5343 37.0196 65.7138 36.6796C65.8933 36.3396 66.1584 36.1008 66.4588 36.0085Z" fill="#A0616A"/>
<path d="M79.7783 30.2158C81.4665 30.2158 82.8351 28.357 82.8351 26.064C82.8351 23.771 81.4665 21.9121 79.7783 21.9121C78.0902 21.9121 76.7216 23.771 76.7216 26.064C76.7216 28.357 78.0902 30.2158 79.7783 30.2158Z" fill="#A0616A"/>
<path d="M81.9791 80.2218L79.8554 79.991C79.7182 79.9762 79.5898 79.8932 79.4948 79.758C79.3998 79.6227 79.3448 79.4447 79.3403 79.2578L78.7476 54.944C78.7427 54.7561 78.7894 54.5725 78.8785 54.4287C78.9676 54.2848 79.0928 54.1911 79.2299 54.1655L83.4638 53.363C83.5511 53.3465 83.64 53.3581 83.7232 53.397C83.8065 53.4359 83.8819 53.5009 83.9432 53.5867C84.0046 53.6726 84.0501 53.7769 84.0762 53.8912C84.1023 54.0055 84.1081 54.1265 84.0933 54.2444L82.4731 67.1337C82.4687 67.1691 82.4666 67.205 82.4669 67.241L82.5837 79.4535C82.5847 79.5542 82.5709 79.6543 82.5432 79.7477C82.5154 79.8412 82.4743 79.9263 82.4222 79.998C82.3701 80.0697 82.308 80.1266 82.2395 80.1655C82.171 80.2043 82.0976 80.2243 82.0234 80.2242C82.0086 80.2242 81.9938 80.2234 81.9791 80.2218Z" fill="#2F2E41"/>
<path d="M84.6988 77.3057L77.4035 66.2776C77.351 66.1983 77.3114 66.1048 77.2872 66.0034C77.2631 65.9019 77.2549 65.7947 77.2631 65.6886L78.1845 53.9562C78.1996 53.7607 78.27 53.5807 78.3808 53.4542C78.4916 53.3277 78.6342 53.2645 78.7786 53.2779L83.2559 53.6833C83.3415 53.6911 83.4247 53.7254 83.499 53.7837C83.5732 53.842 83.6366 53.9228 83.6843 54.0196C83.732 54.1165 83.7626 54.227 83.7739 54.3425C83.7851 54.458 83.7767 54.5755 83.7492 54.6859L81.0666 65.4653C81.0409 65.568 81.0365 65.6784 81.054 65.7844C81.0715 65.8903 81.1102 65.9876 81.1658 66.0655L87.3627 74.7887C87.4214 74.8713 87.4656 74.971 87.4919 75.0802C87.5183 75.1894 87.526 75.3052 87.5147 75.4191C87.5033 75.5329 87.4731 75.6418 87.4263 75.7375C87.3796 75.8333 87.3174 75.9133 87.2446 75.9718L85.4003 77.4521C85.2889 77.5411 85.1582 77.5752 85.0304 77.5485C84.9026 77.5219 84.7855 77.4361 84.6988 77.3057Z" fill="#2F2E41"/>
<path d="M79.2305 32.7802C79.2305 32.7802 81.0973 30.5826 81.9685 31.7659C81.9685 31.7659 86.0132 35.2313 84.2709 44.6976C84.2709 44.6976 85.7643 53.8259 85.1421 54.164C84.5198 54.5021 78.2349 55.7699 77.7371 54.7556C77.2392 53.7414 76.9903 38.1895 79.2305 32.7802Z" fill="#6C63FF"/>
<path d="M68.358 40.6473L68.647 38.2601C68.6591 38.1598 68.6859 38.0639 68.7258 37.978C68.7656 37.892 68.8178 37.8178 68.8791 37.7597C68.9404 37.7016 69.0097 37.6607 69.0829 37.6396C69.156 37.6184 69.2315 37.6173 69.305 37.6365L74.8572 39.0819L80.7929 36.5022C81.0127 36.4067 81.2446 36.3733 81.4743 36.4042C81.704 36.4351 81.9266 36.5296 82.1283 36.6818C82.3301 36.834 82.5068 37.0408 82.6475 37.2893C82.7882 37.5378 82.8899 37.8228 82.9464 38.1267C83.056 38.717 82.9887 39.3421 82.759 39.8648C82.5292 40.3876 82.1561 40.7649 81.7215 40.9139L74.9597 43.2322L68.7981 41.516C68.7588 41.5051 68.7204 41.4885 68.6836 41.4666C68.57 41.3986 68.4763 41.2812 68.4174 41.1328C68.3584 40.9844 68.3375 40.8136 68.358 40.6473Z" fill="#6C63FF"/>
<path d="M81.09 29.4317C81.3693 28.5536 81.6057 27.3841 81.0699 26.7633C80.7592 26.4032 80.3115 26.4024 79.9044 26.3576C78.7572 26.2314 77.5764 25.5145 77.0157 24.1494C76.455 22.7842 76.7681 20.7542 77.8259 20.1383C78.539 19.7231 79.3564 20.006 80.1027 20.2934L82.3436 21.1566C83.0095 21.413 83.7086 21.6958 84.1879 22.3739C84.9524 23.4553 84.8952 25.2834 84.288 26.5354C83.6808 27.7874 82.7664 29.0931 81.7196 29.5685L81.09 29.4317Z" fill="#2F2E41"/>
<path d="M97.8755 83.9999H67.011C66.978 83.9999 66.9463 83.9821 66.923 83.9504C66.8996 83.9187 66.8865 83.8757 66.8865 83.8309C66.8865 83.7861 66.8996 83.7431 66.923 83.7114C66.9463 83.6797 66.978 83.6619 67.011 83.6619H97.8755C97.9086 83.6619 97.9402 83.6797 97.9635 83.7114C97.9869 83.7431 98 83.7861 98 83.8309C98 83.8757 97.9869 83.9187 97.9635 83.9504C97.9402 83.9821 97.9086 83.9999 97.8755 83.9999Z" fill="#3F3D56"/>
<path d="M65.0778 13H0.922156C0.677668 13.0004 0.443271 13.1306 0.270392 13.3622C0.097513 13.5938 0.000271278 13.9078 0 14.2353V77.7647C0.000271278 78.0922 0.097513 78.4062 0.270392 78.6378C0.443271 78.8694 0.677668 78.9996 0.922156 79H65.0778C65.3223 78.9996 65.5567 78.8694 65.7296 78.6378C65.9025 78.4062 65.9997 78.0922 66 77.7647V14.2353C65.9997 13.9078 65.9025 13.5938 65.7296 13.3622C65.5567 13.1306 65.3223 13.0004 65.0778 13ZM65.7365 77.7647C65.7365 77.9987 65.667 78.2231 65.5435 78.3885C65.42 78.554 65.2525 78.647 65.0778 78.6471H0.922156C0.747484 78.647 0.579984 78.554 0.456473 78.3885C0.332961 78.2231 0.263543 77.9987 0.263473 77.7647V14.2353C0.263543 14.0013 0.332961 13.7769 0.456473 13.6115C0.579984 13.446 0.747484 13.353 0.922156 13.3529H65.0778C65.2525 13.353 65.42 13.446 65.5435 13.6115C65.667 13.7769 65.7365 14.0013 65.7365 14.2353V77.7647Z" fill="#3F3D56"/>
<path d="M2.5 17C2.77614 17 3 16.5523 3 16C3 15.4477 2.77614 15 2.5 15C2.22386 15 2 15.4477 2 16C2 16.5523 2.22386 17 2.5 17Z" fill="#3F3D56"/>
<path d="M4.5 17C4.77614 17 5 16.5523 5 16C5 15.4477 4.77614 15 4.5 15C4.22386 15 4 15.4477 4 16C4 16.5523 4.22386 17 4.5 17Z" fill="#3F3D56"/>
<path d="M6.5 17C6.77614 17 7 16.5523 7 16C7 15.4477 6.77614 15 6.5 15C6.22386 15 6 15.4477 6 16C6 16.5523 6.22386 17 6.5 17Z" fill="#3F3D56"/>
<path d="M39.8638 58C39.8398 58 39.8162 57.992 39.7955 57.9768L32.0674 52.3185C32.0363 52.2957 32.0136 52.2582 32.0045 52.2144C31.9953 52.1706 32.0003 52.124 32.0185 52.0849C32.0366 52.0458 32.0664 52.0173 32.1012 52.0057C32.1361 51.9941 32.1732 52.0004 32.2043 52.0231L39.9324 57.6814C39.9583 57.7003 39.9785 57.7294 39.9898 57.7641C40.0012 57.7989 40.0031 57.8374 39.9953 57.8737C39.9875 57.91 39.9704 57.942 39.9466 57.9648C39.9228 57.9877 39.8938 58 39.8638 58Z" fill="#3F3D56"/>
<path d="M25.1191 58C25.093 58 25.0675 57.9877 25.0467 57.9648C25.0259 57.942 25.011 57.91 25.0041 57.8737C24.9973 57.8374 24.999 57.7989 25.0089 57.7641C25.0189 57.7294 25.0365 57.7003 25.0591 57.6813L31.8215 52.0229C31.8487 52.0003 31.8811 51.9941 31.9116 52.0058C31.942 52.0174 31.968 52.0458 31.9838 52.0849C31.9997 52.124 32.0041 52.1705 31.9961 52.2142C31.9882 52.258 31.9684 52.2954 31.9413 52.3183L25.1789 57.9768C25.1608 57.992 25.1402 58 25.1191 58Z" fill="#3F3D56"/>
<path d="M47.8638 67C47.8398 67 47.8162 66.9907 47.7955 66.9729L40.0674 60.3716C40.0363 60.3449 40.0136 60.3013 40.0045 60.2502C39.9953 60.1991 40.0004 60.1447 40.0185 60.0991C40.0366 60.0534 40.0664 60.0202 40.1012 60.0066C40.1361 59.9931 40.1731 60.0004 40.2043 60.0269L47.9324 66.6282C47.9583 66.6503 47.9785 66.6843 47.9898 66.7248C48.0012 66.7654 48.0031 66.8103 47.9953 66.8526C47.9875 66.895 47.9704 66.9323 47.9466 66.959C47.9228 66.9856 47.8938 67 47.8638 67Z" fill="#3F3D56"/>
<path d="M32.1362 67C32.1063 67 32.0772 66.9856 32.0534 66.959C32.0296 66.9323 32.0125 66.895 32.0047 66.8526C31.9969 66.8103 31.9988 66.7654 32.0102 66.7248C32.0215 66.6843 32.0417 66.6503 32.0676 66.6282L39.796 60.0267C39.8271 60.0003 39.8642 59.9931 39.8989 60.0067C39.9337 60.0203 39.9634 60.0535 39.9815 60.0991C39.9996 60.1446 40.0047 60.1989 39.9956 60.2499C39.9865 60.301 39.9639 60.3446 39.9329 60.3714L32.2045 66.9729C32.1838 66.9906 32.1602 67 32.1362 67Z" fill="#3F3D56"/>
<path d="M34.3581 52H30.6419C30.4717 51.9998 30.3086 51.915 30.1882 51.7642C30.0679 51.6134 30.0002 51.409 30 51.1958V48.8042C30.0002 48.591 30.0679 48.3866 30.1882 48.2358C30.3086 48.0851 30.4717 48.0002 30.6419 48H34.3581C34.5283 48.0002 34.6914 48.0851 34.8118 48.2358C34.9321 48.3866 34.9998 48.591 35 48.8042V51.1958C34.9998 51.409 34.9321 51.6134 34.8118 51.7642C34.6914 51.915 34.5283 51.9998 34.3581 52Z" fill="#CCCCCC"/>
<path d="M17.8745 40C17.852 40 17.8299 39.9915 17.8106 39.9753L11.0612 34.3291C11.0327 34.3051 11.0121 34.2661 11.0039 34.2207C10.9957 34.1753 11.0006 34.1271 11.0175 34.0868C11.0345 34.0465 11.062 34.0173 11.0942 34.0056C11.1264 33.9939 11.1605 34.0007 11.1891 34.0245L17.9385 39.6707C17.9622 39.6905 17.9806 39.7207 17.9909 39.7567C18.0012 39.7927 18.0028 39.8324 17.9955 39.8698C17.9882 39.9073 17.9724 39.9403 17.9506 39.9638C17.9287 39.9873 17.902 40 17.8745 40Z" fill="#3F3D56"/>
<path d="M11.1255 46C11.098 46 11.0713 45.9873 11.0494 45.9638C11.0276 45.9403 11.0118 45.9073 11.0045 45.8699C10.9972 45.8324 10.9988 45.7927 11.0091 45.7567C11.0194 45.7207 11.0378 45.6905 11.0615 45.6707L17.8106 40.0247C17.8392 40.0008 17.8734 39.9939 17.9057 40.0055C17.9379 40.0172 17.9655 40.0464 17.9825 40.0868C17.9994 40.1272 18.0043 40.1754 17.9961 40.2209C17.9878 40.2664 17.9671 40.3054 17.9385 40.3293L11.1894 45.9753C11.17 45.9915 11.148 46 11.1255 46Z" fill="#3F3D56"/>
<path d="M20.3968 43H18.6032C18.4433 42.9998 18.2899 42.9185 18.1769 42.7741C18.0638 42.6297 18.0002 42.4339 18 42.2297V37.7703C18.0002 37.5661 18.0638 37.3703 18.1769 37.2259C18.2899 37.0815 18.4433 37.0002 18.6032 37H20.3968C20.5567 37.0002 20.7101 37.0815 20.8231 37.2259C20.9362 37.3703 20.9998 37.5661 21 37.7703V42.2297C20.9998 42.4339 20.9362 42.6297 20.8231 42.7741C20.7101 42.9185 20.5567 42.9998 20.3968 43Z" fill="#CCCCCC"/>
<path d="M34.3581 32H30.6419C30.4717 31.9998 30.3086 31.915 30.1882 31.7642C30.0679 31.6134 30.0002 31.409 30 31.1958V28.8042C30.0002 28.591 30.0679 28.3866 30.1882 28.2358C30.3086 28.0851 30.4717 28.0002 30.6419 28H34.3581C34.5283 28.0002 34.6914 28.0851 34.8118 28.2358C34.9321 28.3866 34.9998 28.591 35 28.8042V31.1958C34.9998 31.409 34.9321 31.6134 34.8118 31.7642C34.6914 31.915 34.5283 31.9998 34.3581 32Z" fill="#CCCCCC"/>
<path d="M10.3968 37H8.60318C8.44326 36.9998 8.28994 36.9185 8.17686 36.7741C8.06378 36.6297 8.00018 36.4339 8 36.2297V31.7703C8.00018 31.5661 8.06378 31.3703 8.17686 31.2259C8.28994 31.0815 8.44326 31.0002 8.60318 31H10.3968C10.5567 31.0002 10.7101 31.0815 10.8231 31.2259C10.9362 31.3703 10.9998 31.5661 11 31.7703V36.2297C10.9998 36.4339 10.9362 36.6297 10.8231 36.7741C10.7101 36.9185 10.5567 36.9998 10.3968 37Z" fill="#CCCCCC"/>
<path d="M10.3968 49H8.60318C8.44326 48.9997 8.28994 48.905 8.17686 48.7365C8.06378 48.568 8.00018 48.3396 8 48.1013V42.8987C8.00018 42.6604 8.06378 42.432 8.17686 42.2635C8.28994 42.095 8.44326 42.0003 8.60318 42H10.3968C10.5567 42.0003 10.7101 42.095 10.8231 42.2635C10.9362 42.432 10.9998 42.6604 11 42.8987V48.1013C10.9998 48.3396 10.9362 48.568 10.8231 48.7365C10.7101 48.905 10.5567 48.9997 10.3968 49Z" fill="#CCCCCC"/>
<path d="M46.1435 40C46.1121 40 46.0815 39.9873 46.0565 39.9638C46.0315 39.9403 46.0134 39.9073 46.0051 39.8699C45.9968 39.8324 45.9987 39.7927 46.0104 39.7567C46.0222 39.7207 46.0432 39.6905 46.0703 39.6707L53.7836 34.0247C53.7998 34.0129 53.8177 34.0051 53.8364 34.0018C53.855 33.9985 53.874 33.9998 53.8922 34.0055C53.9104 34.0113 53.9276 34.0214 53.9426 34.0354C53.9577 34.0493 53.9704 34.0668 53.98 34.0868C53.9896 34.1068 53.9959 34.1289 53.9986 34.1519C54.0012 34.1749 54.0002 34.1984 53.9955 34.2209C53.9909 34.2434 53.9827 34.2646 53.9714 34.2832C53.9601 34.3018 53.9459 34.3175 53.9297 34.3293L46.2164 39.9753C46.1943 39.9915 46.1691 40 46.1435 40Z" fill="#3F3D56"/>
<path d="M53.8565 46C53.8309 46 53.8057 45.9915 53.7836 45.9753L46.0703 40.3293C46.0376 40.3054 46.0139 40.2664 46.0045 40.2209C45.9951 40.1754 46.0006 40.1272 46.02 40.0868C46.0394 40.0464 46.071 40.0172 46.1078 40.0055C46.1446 39.9939 46.1837 40.0008 46.2164 40.0247L53.9297 45.6707C53.9568 45.6905 53.9778 45.7207 53.9896 45.7567C54.0013 45.7927 54.0032 45.8324 53.9949 45.8699C53.9866 45.9073 53.9685 45.9403 53.9435 45.9638C53.9185 45.9873 53.8879 46 53.8565 46Z" fill="#3F3D56"/>
<path d="M66 18H0V18.5H66V18Z" fill="#3F3D56"/>
<path d="M45.3968 43H43.6032C43.4433 42.9998 43.2899 42.9185 43.1769 42.7741C43.0638 42.6297 43.0002 42.4339 43 42.2297V37.7703C43.0002 37.5661 43.0638 37.3703 43.1769 37.2259C43.2899 37.0815 43.4433 37.0002 43.6032 37H45.3968C45.5567 37.0002 45.7101 37.0815 45.8231 37.2259C45.9362 37.3703 45.9998 37.5661 46 37.7703V42.2297C45.9998 42.4339 45.9362 42.6297 45.8231 42.7741C45.7101 42.9185 45.5567 42.9998 45.3968 43Z" fill="#CCCCCC"/>
<path d="M55.3968 37H53.6032C53.4433 36.9998 53.2899 36.9185 53.1769 36.7741C53.0638 36.6297 53.0002 36.4339 53 36.2297V31.7703C53.0002 31.5661 53.0638 31.3703 53.1769 31.2259C53.2899 31.0815 53.4433 31.0002 53.6032 31H55.3968C55.5567 31.0002 55.7101 31.0815 55.8231 31.2259C55.9362 31.3703 55.9998 31.5661 56 31.7703V36.2297C55.9998 36.4339 55.9362 36.6297 55.8231 36.7741C55.7101 36.9185 55.5567 36.9998 55.3968 37Z" fill="#CCCCCC"/>
<path d="M55.3968 49H53.6032C53.4433 48.9997 53.2899 48.905 53.1769 48.7365C53.0638 48.568 53.0002 48.3396 53 48.1013V42.8987C53.0002 42.6604 53.0638 42.432 53.1769 42.2635C53.2899 42.095 53.4433 42.0003 53.6032 42H55.3968C55.5567 42.0003 55.7101 42.095 55.8231 42.2635C55.9362 42.432 55.9998 42.6604 56 42.8987V48.1013C55.9998 48.3396 55.9362 48.568 55.8231 48.7365C55.7101 48.905 55.5567 48.9997 55.3968 49Z" fill="#CCCCCC"/>
<path d="M26.3581 61H22.6419C22.4717 60.9998 22.3086 60.915 22.1882 60.7642C22.0679 60.6134 22.0002 60.409 22 60.1958V57.8042C22.0002 57.591 22.0679 57.3866 22.1882 57.2358C22.3086 57.085 22.4717 57.0002 22.6419 57H26.3581C26.5283 57.0002 26.6914 57.085 26.8118 57.2358C26.9321 57.3866 26.9998 57.591 27 57.8042V60.1958C26.9998 60.409 26.9321 60.6134 26.8118 60.7642C26.6914 60.915 26.5283 60.9998 26.3581 61Z" fill="#CCCCCC"/>
<path d="M41.4865 61H38.5135C38.3774 60.9998 38.2468 60.915 38.1506 60.7642C38.0543 60.6134 38.0002 60.409 38 60.1958V57.8042C38.0002 57.591 38.0543 57.3866 38.1506 57.2358C38.2468 57.0851 38.3774 57.0002 38.5135 57H41.4865C41.6226 57.0002 41.7532 57.0851 41.8494 57.2358C41.9457 57.3866 41.9998 57.591 42 57.8042V60.1958C41.9998 60.409 41.9457 60.6134 41.8494 60.7642C41.7532 60.915 41.6226 60.9998 41.4865 61Z" fill="#CCCCCC"/>
<path d="M34.4865 70H31.5135C31.3774 69.9998 31.2468 69.9149 31.1506 69.7642C31.0543 69.6134 31.0002 69.409 31 69.1958V66.8042C31.0002 66.591 31.0543 66.3866 31.1506 66.2358C31.2468 66.085 31.3774 66.0002 31.5135 66H34.4865C34.6226 66.0002 34.7532 66.085 34.8494 66.2358C34.9457 66.3866 34.9998 66.591 35 66.8042V69.1958C34.9998 69.409 34.9457 69.6134 34.8494 69.7642C34.7532 69.9149 34.6226 69.9998 34.4865 70Z" fill="#CCCCCC"/>
<path d="M49.3581 70H45.6419C45.4717 69.9998 45.3086 69.9149 45.1882 69.7642C45.0679 69.6134 45.0002 69.409 45 69.1958V66.8042C45.0002 66.591 45.0679 66.3866 45.1882 66.2358C45.3086 66.085 45.4717 66.0002 45.6419 66H49.3581C49.5283 66.0002 49.6914 66.085 49.8118 66.2358C49.9321 66.3866 49.9998 66.591 50 66.8042V69.1958C49.9998 69.409 49.9321 69.6134 49.8118 69.7642C49.6914 69.9149 49.5283 69.9998 49.3581 70Z" fill="#CCCCCC"/>
<path d="M41.4865 70H38.5135C38.3774 69.9998 38.2468 69.9149 38.1506 69.7642C38.0543 69.6134 38.0002 69.409 38 69.1958V66.8042C38.0002 66.591 38.0543 66.3866 38.1506 66.2358C38.2468 66.085 38.3774 66.0002 38.5135 66H41.4865C41.6226 66.0002 41.7532 66.085 41.8494 66.2358C41.9457 66.3866 41.9998 66.591 42 66.8042V69.1958C41.9998 69.409 41.9457 69.6134 41.8494 69.7642C41.7532 69.9149 41.6226 69.9998 41.4865 70Z" fill="#CCCCCC"/>
<path d="M36.3779 43H27.6221C27.4571 42.9998 27.299 42.9179 27.1824 42.7724C27.0658 42.627 27.0002 42.4297 27 42.224V37.776C27.0002 37.5703 27.0658 37.373 27.1824 37.2276C27.299 37.0821 27.4571 37.0002 27.6221 37H36.3779C36.5429 37.0002 36.701 37.0821 36.8176 37.2276C36.9342 37.373 36.9998 37.5703 37 37.776V42.224C36.9998 42.4297 36.9342 42.627 36.8176 42.7724C36.701 42.9179 36.5428 42.9998 36.3779 43Z" fill="#6C63FF"/>
</svg>
