<svg xmlns="http://www.w3.org/2000/svg" fill="none" viewBox="0 0 100 100" height="100" width="100">
<path fill="#FFB8B8" d="M16.2456 48.1562C17.7095 48.1562 18.8962 46.9695 18.8962 45.5056C18.8962 44.0417 17.7095 42.855 16.2456 42.855C14.7817 42.855 13.595 44.0417 13.595 45.5056C13.595 46.9695 14.7817 48.1562 16.2456 48.1562Z"></path>
<path fill="#FFB8B8" d="M7.28931 77.2688L7.96045 78.409L12.6778 76.3629L11.6872 74.6801L7.28931 77.2688Z"></path>
<path fill="#2F2E41" d="M7.49021 76.7589L8.81193 79.0043L8.81199 79.0044C8.9226 79.1923 8.99511 79.4002 9.02538 79.6161C9.05566 79.8321 9.0431 80.0519 8.98843 80.263C8.93376 80.4741 8.83805 80.6723 8.70675 80.8464C8.57546 81.0205 8.41116 81.1671 8.22323 81.2777L8.17673 81.305L6.0127 77.6286L7.49021 76.7589Z"></path>
<path fill="#FFB8B8" d="M15.0656 81.3764L16.3887 81.3763L17.0181 76.2731L15.0654 76.2732L15.0656 81.3764Z"></path>
<path fill="#2F2E41" d="M14.728 80.9444L17.3336 80.9443H17.3337C17.5518 80.9443 17.7677 80.9873 17.9692 81.0707C18.1706 81.1542 18.3537 81.2765 18.5079 81.4307C18.662 81.5848 18.7844 81.7679 18.8678 81.9694C18.9513 82.1708 18.9942 82.3867 18.9942 82.6048V82.6588L14.7281 82.6589L14.728 80.9444Z"></path>
<path fill="#2F2E41" d="M9.7463 78.2846C9.67016 78.2846 9.59507 78.2667 9.52713 78.2324C9.45918 78.198 9.40028 78.1481 9.3552 78.0868L8.0792 76.3537C8.04027 76.3009 8.01247 76.2407 7.99747 76.1767C7.98247 76.1128 7.98058 76.0465 7.99192 75.9819C8.00327 75.9172 8.0276 75.8555 8.06346 75.8005C8.09932 75.7456 8.14596 75.6984 8.20055 75.662L13.8786 71.8695L10.4525 62.861L17.7791 63.4656L18.0258 71.207C18.049 71.912 17.88 72.6101 17.537 73.2264C17.1939 73.8428 16.6898 74.3543 16.0784 74.7062L9.98893 78.2193C9.91521 78.262 9.83151 78.2845 9.7463 78.2846V78.2846Z"></path>
<path fill="#2F2E41" d="M15.1055 80.3404C14.9798 80.3402 14.8591 80.2913 14.7688 80.2039C14.6785 80.1166 14.6255 79.9976 14.621 79.8721L14.3525 72.3305L17.6773 72.1553L17.4126 79.7511C17.4087 79.8714 17.3601 79.986 17.2763 80.0724C17.1925 80.1589 17.0795 80.211 16.9594 80.2187L15.1385 80.3394C15.1274 80.3401 15.1164 80.3404 15.1055 80.3404Z"></path>
<path fill="#2F45C5" d="M18.627 64.9632C17.7811 64.9632 14.8264 64.0118 13.8007 63.6726C13.6473 63.7954 12.8043 64.4257 11.8203 64.3105C11.2131 64.2393 10.6786 63.8956 10.2316 63.289C9.24447 61.9493 10.4637 56.204 11.6603 51.6201C11.9002 50.6936 12.49 49.8962 13.3057 49.3954C14.1213 48.8947 15.0994 48.7297 16.0341 48.9351V48.9351C16.7117 49.0847 17.3341 49.4202 17.8314 49.904C18.3287 50.3878 18.6813 51.0007 18.8495 51.6739C19.0748 52.591 18.881 53.6698 18.7395 54.4575C18.6729 54.8279 18.6204 55.1204 18.6383 55.2642C18.7078 55.8198 19.0936 64.5335 18.8455 64.9057C18.8191 64.9453 18.7427 64.9632 18.627 64.9632Z"></path>
<path fill="#FFB8B8" d="M15.5324 64.9786C15.6684 64.8774 15.7805 64.7476 15.8609 64.5984C15.9412 64.4492 15.9879 64.2842 15.9976 64.115C16.0073 63.9458 15.9797 63.7765 15.9169 63.6191C15.8541 63.4616 15.7576 63.3199 15.6341 63.2038L15.6864 52.6447L13.1995 53.0588L13.93 63.3079C13.7488 63.5283 13.6547 63.8075 13.6656 64.0927C13.6765 64.3778 13.7916 64.6491 13.9891 64.855C14.1866 65.061 14.4529 65.1873 14.7373 65.2101C15.0217 65.2329 15.3047 65.1505 15.5324 64.9786V64.9786Z"></path>
<path fill="#2F45C5" d="M16.1077 59.4258H13.4289C13.301 59.4255 13.1784 59.3748 13.0875 59.2847C12.9966 59.1947 12.9448 59.0725 12.9433 58.9446L12.8775 51.6825C12.8752 51.4314 12.9228 51.1824 13.0174 50.9498C13.112 50.7171 13.2517 50.5056 13.4286 50.3273C13.6055 50.1491 13.8159 50.0076 14.0478 49.9112C14.2797 49.8148 14.5284 49.7653 14.7795 49.7656C15.0306 49.7659 15.2791 49.816 15.5108 49.913C15.7424 50.01 15.9525 50.1519 16.129 50.3306C16.3054 50.5093 16.4447 50.7212 16.5387 50.9541C16.6327 51.1869 16.6796 51.4361 16.6767 51.6872L16.5933 58.9458C16.5914 59.0735 16.5394 59.1953 16.4486 59.2851C16.3578 59.3749 16.2354 59.4254 16.1077 59.4258V59.4258Z"></path>
<path fill="#2F2E41" d="M15.5707 48.1451C14.3571 48.1473 13.2122 47.1881 13.0019 45.9928C12.9266 45.5233 12.9606 45.0427 13.1011 44.5884C13.2537 44.0712 13.5154 43.5928 13.8686 43.1853C14.2218 42.7779 14.6582 42.4509 15.1484 42.2263C15.6387 42.0018 16.1714 41.885 16.7106 41.8838C17.2498 41.8826 17.783 41.997 18.2743 42.2193C18.5989 42.3662 18.9187 42.5772 19.0673 42.901C19.216 43.2249 19.123 43.6776 18.7978 43.8233C18.5853 43.9185 18.3186 43.8718 18.1301 44.0084C17.8593 44.2048 17.929 44.6226 18.0499 44.9345C18.1708 45.2464 18.3076 45.6238 18.1049 45.8898C17.916 46.1378 17.5384 46.1301 17.241 46.0368C16.9437 45.9434 16.6501 45.7872 16.3401 45.819C15.8878 45.8653 15.5629 46.3151 15.5027 46.7657C15.4426 47.2163 15.5842 47.6668 15.724 48.0993L15.5707 48.1451Z"></path>
<path fill="#CCCCCC" d="M27.951 82.7605H0.107919C0.079297 82.7605 0.0518474 82.7491 0.0316086 82.7289C0.0113699 82.7087 0 82.6812 0 82.6526C0 82.624 0.0113699 82.5965 0.0316086 82.5763C0.0518474 82.556 0.079297 82.5447 0.107919 82.5447H27.951C27.9796 82.5447 28.0071 82.556 28.0273 82.5763C28.0475 82.5965 28.0589 82.624 28.0589 82.6526C28.0589 82.6812 28.0475 82.7087 28.0273 82.7289C28.0071 82.7491 27.9796 82.7605 27.951 82.7605Z"></path>
<path fill="#F2F2F2" d="M98.2192 64.8959H29.0607C28.5886 64.8954 28.136 64.7076 27.8022 64.3738C27.4683 64.04 27.2806 63.5874 27.28 63.1153V20.4707C27.2804 20.1248 27.418 19.7932 27.6625 19.5487C27.9071 19.3041 28.2387 19.1665 28.5845 19.1661H98.6728C99.0247 19.1665 99.362 19.3065 99.6108 19.5553C99.8596 19.8041 99.9995 20.1414 99.9999 20.4933V63.1153C99.9994 63.5874 99.8116 64.04 99.4778 64.3738C99.144 64.7076 98.6913 64.8954 98.2192 64.8959V64.8959Z"></path>
<path fill="white" d="M95.9832 62.6477H31.5292C30.5843 62.6477 29.8157 61.9279 29.8157 61.0431V23.9077C29.8157 23.2516 30.3853 22.7177 31.0854 22.7177H96.4059C97.1176 22.7177 97.6967 23.2604 97.6967 23.9273V61.0431C97.6967 61.9279 96.928 62.6477 95.9832 62.6477Z"></path>
<path fill="#3F3D56" d="M99.9752 20.6926H27.2551V19.786C27.2558 19.3124 27.4444 18.8583 27.7794 18.5235C28.1144 18.1887 28.5686 18.0004 29.0423 18H98.1881C98.6618 18.0004 99.1159 18.1886 99.451 18.5235C99.786 18.8583 99.9746 19.3124 99.9752 19.786V20.6926Z"></path>
<path fill="white" d="M30.503 19.8112C30.7583 19.8112 30.9653 19.6043 30.9653 19.349C30.9653 19.0937 30.7583 18.8867 30.503 18.8867C30.2477 18.8867 30.0408 19.0937 30.0408 19.349C30.0408 19.6043 30.2477 19.8112 30.503 19.8112Z"></path>
<path fill="white" d="M32.2577 19.8112C32.513 19.8112 32.7199 19.6043 32.7199 19.349C32.7199 19.0937 32.513 18.8867 32.2577 18.8867C32.0024 18.8867 31.7954 19.0937 31.7954 19.349C31.7954 19.6043 32.0024 19.8112 32.2577 19.8112Z"></path>
<path fill="white" d="M34.0123 19.8112C34.2676 19.8112 34.4746 19.6043 34.4746 19.349C34.4746 19.0937 34.2676 18.8867 34.0123 18.8867C33.757 18.8867 33.55 19.0937 33.55 19.349C33.55 19.6043 33.757 19.8112 34.0123 19.8112Z"></path>
<path fill="#CCCCCC" d="M62.227 30.8374H49.6212C49.4333 30.8374 49.253 30.7628 49.1201 30.6299C48.9873 30.497 48.9126 30.3168 48.9126 30.1288C48.9126 29.9409 48.9873 29.7607 49.1201 29.6278C49.253 29.4949 49.4333 29.4202 49.6212 29.4202H62.227C62.4149 29.4202 62.5952 29.4949 62.7281 29.6278C62.861 29.7607 62.9356 29.9409 62.9356 30.1288C62.9356 30.3168 62.861 30.497 62.7281 30.6299C62.5952 30.7628 62.4149 30.8374 62.227 30.8374V30.8374Z"></path>
<path fill="#CCCCCC" d="M77.8913 30.8374H65.2855C65.0976 30.8374 64.9173 30.7628 64.7844 30.6299C64.6516 30.497 64.5769 30.3168 64.5769 30.1288C64.5769 29.9409 64.6516 29.7607 64.7844 29.6278C64.9173 29.4949 65.0976 29.4202 65.2855 29.4202H77.8913C78.0793 29.4202 78.2595 29.4949 78.3924 29.6278C78.5253 29.7607 78.5999 29.9409 78.5999 30.1288C78.5999 30.3168 78.5253 30.497 78.3924 30.6299C78.2595 30.7628 78.0793 30.8374 77.8913 30.8374V30.8374Z"></path>
<path fill="#CCCCCC" d="M77.8912 33.5227H55.9615C55.7736 33.5227 55.5934 33.448 55.4605 33.3151C55.3276 33.1822 55.2529 33.002 55.2529 32.8141C55.2529 32.6261 55.3276 32.4459 55.4605 32.313C55.5934 32.1801 55.7736 32.1055 55.9615 32.1055H77.8912C78.0791 32.1055 78.2594 32.1801 78.3923 32.313C78.5251 32.4459 78.5998 32.6261 78.5998 32.8141C78.5998 33.002 78.5251 33.1822 78.3923 33.3151C78.2594 33.448 78.0791 33.5227 77.8912 33.5227Z"></path>
<path fill="#CCCCCC" d="M62.2271 28.1149H49.6213C49.4335 28.1146 49.2535 28.0399 49.1208 27.907C48.9881 27.7741 48.9136 27.594 48.9136 27.4062C48.9136 27.2185 48.9881 27.0384 49.1208 26.9055C49.2535 26.7726 49.4335 26.6979 49.6213 26.6976H62.2271C62.3203 26.6975 62.4125 26.7158 62.4986 26.7513C62.5846 26.7869 62.6629 26.8391 62.7287 26.9049C62.7946 26.9707 62.8469 27.0488 62.8826 27.1349C62.9182 27.2209 62.9366 27.3131 62.9366 27.4062C62.9366 27.4994 62.9182 27.5916 62.8826 27.6776C62.8469 27.7636 62.7946 27.8418 62.7287 27.9076C62.6629 27.9734 62.5846 28.0256 62.4986 28.0612C62.4125 28.0967 62.3203 28.115 62.2271 28.1149V28.1149Z"></path>
<path fill="#CCCCCC" d="M69.1642 28.1521H65.5839C65.3959 28.1521 65.2157 28.0775 65.0828 27.9446C64.9499 27.8117 64.8752 27.6315 64.8752 27.4435C64.8752 27.2556 64.9499 27.0754 65.0828 26.9425C65.2157 26.8096 65.3959 26.7349 65.5839 26.7349H69.1642C69.3521 26.7349 69.5324 26.8096 69.6653 26.9425C69.7982 27.0754 69.8728 27.2556 69.8728 27.4435C69.8728 27.6315 69.7982 27.8117 69.6653 27.9446C69.5324 28.0775 69.3521 28.1521 69.1642 28.1521Z"></path>
<path fill="#CCCCCC" d="M53.2017 33.5227H49.6213C49.4335 33.5225 49.2535 33.4477 49.1208 33.3148C48.9881 33.182 48.9136 33.0019 48.9136 32.8141C48.9136 32.6263 48.9881 32.4462 49.1208 32.3133C49.2535 32.1805 49.4335 32.1057 49.6213 32.1055H53.2017C53.2948 32.1054 53.387 32.1236 53.4731 32.1592C53.5592 32.1947 53.6374 32.2469 53.7033 32.3127C53.7692 32.3785 53.8215 32.4567 53.8571 32.5427C53.8928 32.6287 53.9112 32.7209 53.9112 32.8141C53.9112 32.9072 53.8928 32.9994 53.8571 33.0854C53.8215 33.1715 53.7692 33.2496 53.7033 33.3154C53.6374 33.3813 53.5592 33.4334 53.4731 33.469C53.387 33.5046 53.2948 33.5228 53.2017 33.5227Z"></path>
<path fill="#CCCCCC" d="M62.227 55.9825H49.6212C49.4333 55.9825 49.253 55.9079 49.1201 55.775C48.9873 55.6421 48.9126 55.4619 48.9126 55.2739C48.9126 55.086 48.9873 54.9057 49.1201 54.7729C49.253 54.64 49.4333 54.5653 49.6212 54.5653H62.227C62.3201 54.5653 62.4122 54.5836 62.4982 54.6192C62.5842 54.6549 62.6623 54.7071 62.7281 54.7729C62.7939 54.8387 62.8461 54.9168 62.8817 55.0027C62.9173 55.0887 62.9356 55.1809 62.9356 55.2739C62.9356 55.367 62.9173 55.4591 62.8817 55.5451C62.8461 55.6311 62.7939 55.7092 62.7281 55.775C62.6623 55.8408 62.5842 55.893 62.4982 55.9286C62.4122 55.9642 62.3201 55.9825 62.227 55.9825V55.9825Z"></path>
<path fill="#CCCCCC" d="M77.8913 55.9825H65.2855C65.0976 55.9825 64.9173 55.9079 64.7844 55.775C64.6516 55.6421 64.5769 55.4619 64.5769 55.2739C64.5769 55.086 64.6516 54.9057 64.7844 54.7729C64.9173 54.64 65.0976 54.5653 65.2855 54.5653H77.8913C77.9844 54.5653 78.0765 54.5836 78.1625 54.6192C78.2485 54.6549 78.3266 54.7071 78.3924 54.7729C78.4582 54.8387 78.5104 54.9168 78.546 55.0027C78.5816 55.0887 78.5999 55.1809 78.5999 55.2739C78.5999 55.367 78.5816 55.4591 78.546 55.5451C78.5104 55.6311 78.4582 55.7092 78.3924 55.775C78.3266 55.8408 78.2485 55.893 78.1625 55.9286C78.0765 55.9642 77.9844 55.9825 77.8913 55.9825V55.9825Z"></path>
<path fill="#CCCCCC" d="M77.8912 58.6678H55.9615C55.7736 58.6678 55.5934 58.5932 55.4605 58.4603C55.3276 58.3274 55.2529 58.1471 55.2529 57.9592C55.2529 57.7713 55.3276 57.591 55.4605 57.4582C55.5934 57.3253 55.7736 57.2506 55.9615 57.2506H77.8912C77.9843 57.2505 78.0766 57.2687 78.1626 57.3043C78.2487 57.3399 78.3269 57.392 78.3928 57.4578C78.4587 57.5237 78.511 57.6018 78.5467 57.6878C78.5823 57.7739 78.6007 57.8661 78.6007 57.9592C78.6007 58.0523 78.5823 58.1446 78.5467 58.2306C78.511 58.3166 78.4587 58.3948 78.3928 58.4606C78.3269 58.5264 78.2487 58.5786 78.1626 58.6141C78.0766 58.6497 77.9843 58.6679 77.8912 58.6678Z"></path>
<path fill="#CCCCCC" d="M62.227 53.26H49.6212C49.4333 53.26 49.253 53.1853 49.1201 53.0524C48.9873 52.9196 48.9126 52.7393 48.9126 52.5514C48.9126 52.3634 48.9873 52.1832 49.1201 52.0503C49.253 51.9174 49.4333 51.8428 49.6212 51.8428H62.227C62.4149 51.8428 62.5952 51.9174 62.7281 52.0503C62.861 52.1832 62.9356 52.3634 62.9356 52.5514C62.9356 52.7393 62.861 52.9196 62.7281 53.0524C62.5952 53.1853 62.4149 53.26 62.227 53.26Z"></path>
<path fill="#CCCCCC" d="M69.1642 53.2973H65.5839C65.3959 53.2973 65.2157 53.2226 65.0828 53.0897C64.9499 52.9569 64.8752 52.7766 64.8752 52.5887C64.8752 52.4007 64.9499 52.2205 65.0828 52.0876C65.2157 51.9547 65.3959 51.8801 65.5839 51.8801H69.1642C69.3521 51.8801 69.5324 51.9547 69.6653 52.0876C69.7982 52.2205 69.8728 52.4007 69.8728 52.5887C69.8728 52.7766 69.7982 52.9569 69.6653 53.0897C69.5324 53.2226 69.3521 53.2973 69.1642 53.2973V53.2973Z"></path>
<path fill="#CCCCCC" d="M53.2016 58.6678H49.6212C49.4333 58.6678 49.253 58.5932 49.1201 58.4603C48.9873 58.3274 48.9126 58.1471 48.9126 57.9592C48.9126 57.7713 48.9873 57.591 49.1201 57.4582C49.253 57.3253 49.4333 57.2506 49.6212 57.2506H53.2016C53.2947 57.2505 53.3869 57.2687 53.473 57.3043C53.5591 57.3399 53.6373 57.392 53.7032 57.4578C53.7691 57.5237 53.8214 57.6018 53.857 57.6878C53.8927 57.7739 53.911 57.8661 53.911 57.9592C53.911 58.0523 53.8927 58.1446 53.857 58.2306C53.8214 58.3166 53.7691 58.3948 53.7032 58.4606C53.6373 58.5264 53.5591 58.5786 53.473 58.6141C53.3869 58.6497 53.2947 58.6679 53.2016 58.6678Z"></path>
<path fill="#2F45C5" d="M58.935 48.375C58.6675 48.3756 58.4106 48.2705 58.2202 48.0826L53.4817 43.4033C53.3886 43.3114 53.3148 43.202 53.2644 43.0814C53.2139 42.9607 53.188 42.8313 53.188 42.7005C53.188 42.5698 53.2139 42.4404 53.2644 42.3197C53.3148 42.1991 53.3886 42.0897 53.4817 41.9978L58.2011 37.3374C58.3977 37.1442 58.6626 37.0363 58.9382 37.0372C59.2139 37.038 59.4781 37.1476 59.6735 37.342C59.869 37.5381 59.9789 37.8037 59.9789 38.0806C59.9789 38.3575 59.869 38.6231 59.6735 38.8191L56.1665 42.3261C56.0573 42.4356 55.9959 42.584 55.9959 42.7387C55.9959 42.8934 56.0573 43.0418 56.1665 43.1513L59.6545 46.6393C59.7969 46.7814 59.8939 46.9626 59.9333 47.16C59.9726 47.3573 59.9524 47.5619 59.8754 47.7478C59.7983 47.9337 59.6679 48.0926 59.5004 48.2042C59.333 48.3159 59.1362 48.3753 58.935 48.375V48.375Z"></path>
<path fill="#2F45C5" d="M66.4855 48.375C66.2843 48.3753 66.0875 48.3159 65.9201 48.2042C65.7527 48.0926 65.6222 47.9337 65.5451 47.7478C65.4681 47.5619 65.448 47.3573 65.4873 47.16C65.5266 46.9626 65.6237 46.7814 65.7661 46.6393L69.254 43.1513C69.3633 43.0418 69.4246 42.8934 69.4246 42.7387C69.4246 42.584 69.3633 42.4356 69.254 42.3261L65.7471 38.8191C65.6501 38.7221 65.5731 38.607 65.5207 38.4803C65.4682 38.3535 65.4412 38.2177 65.4412 38.0806C65.4412 37.9434 65.4682 37.8076 65.5207 37.6809C65.5732 37.5542 65.6501 37.439 65.7471 37.342V37.342C65.9425 37.1476 66.2067 37.038 66.4823 37.0372C66.758 37.0363 67.0229 37.1442 67.2195 37.3374L71.9389 41.9978C72.0319 42.0897 72.1058 42.1991 72.1562 42.3197C72.2066 42.4404 72.2326 42.5698 72.2326 42.7005C72.2326 42.8313 72.2066 42.9607 72.1562 43.0814C72.1058 43.202 72.0319 43.3114 71.9389 43.4033L67.2003 48.0826C67.01 48.2705 66.753 48.3756 66.4855 48.375Z"></path>
</svg>
