<svg xmlns="http://www.w3.org/2000/svg" fill="none" viewBox="0 0 100 100" height="100" width="100">
<g clip-path="url(#clip0)">
<path fill="#F2F2F2" d="M95.8588 73.7446C92.9481 75.8414 89.176 75.9467 85.5299 75.6891C85.0208 75.6532 84.5153 75.611 84.0144 75.5656C84.0114 75.5648 84.0075 75.5651 84.0044 75.5643C83.9803 75.562 83.9562 75.5597 83.9332 75.5583C83.8298 75.5487 83.7264 75.539 83.624 75.5293L83.6481 75.5754L83.7241 75.7187C83.6968 75.6707 83.6695 75.6238 83.6422 75.5758C83.6342 75.5615 83.6252 75.5471 83.6172 75.5327C82.6727 73.8891 81.7359 72.185 81.4969 70.3082C81.2499 68.36 81.9441 66.1541 83.6587 65.1966C83.8835 65.0714 84.1216 64.9717 84.3686 64.8993C84.4712 64.8681 84.5751 64.8428 84.6802 64.8205C85.3232 64.6777 85.9927 64.7087 86.6197 64.9105C87.2468 65.1122 87.8088 65.4773 88.248 65.9682C88.6872 66.4591 88.9877 67.0581 89.1186 67.7037C89.2495 68.3493 89.2061 69.018 88.9929 69.6413C90.4465 68.1507 90.1753 65.7326 89.6739 63.7117C89.1715 61.6908 88.5633 59.442 89.5851 57.6269C90.1532 56.6166 91.1521 55.9897 92.2731 55.7372C92.3075 55.7298 92.3418 55.7224 92.3763 55.716C93.712 55.4454 95.1005 55.6887 96.2646 56.3973C98.4081 57.748 99.5091 60.3091 99.8664 62.8178C100.442 66.8549 99.168 71.3603 95.8588 73.7446Z"></path>
<path fill="white" d="M94.919 67.273C94.8345 68.1635 94.6206 69.0369 94.284 69.8656C93.9738 70.599 93.5558 71.2819 93.0436 71.8917C91.9975 73.1501 90.6142 74.0962 89.1119 74.7266C87.9632 75.1971 86.7597 75.5205 85.5299 75.6891C85.0208 75.6532 84.5152 75.611 84.0144 75.5655C84.0114 75.5648 84.0074 75.565 84.0043 75.5642C83.9803 75.562 83.9561 75.5597 83.9331 75.5583C83.8297 75.5486 83.7263 75.539 83.6239 75.5292L83.6481 75.5754L83.724 75.7186C83.6967 75.6707 83.6695 75.6238 83.6422 75.5758C83.6342 75.5614 83.6252 75.5471 83.6172 75.5327C84.5392 74.6141 85.2275 73.4879 85.6246 72.2485C86.0217 71.0091 86.1159 69.6926 85.8994 68.4093C85.6728 67.135 85.1483 65.9323 84.3686 64.8992C84.4711 64.8681 84.5751 64.8428 84.6802 64.8204C84.9765 65.2255 85.2364 65.6561 85.4569 66.107C86.2481 67.715 86.5005 69.535 86.1768 71.2976C85.8758 72.8926 85.1261 74.3687 84.0155 75.5525C84.1127 75.5456 84.2109 75.5377 84.307 75.529C86.127 75.3748 87.9433 74.9835 89.5941 74.1821C91.0052 73.5136 92.2302 72.5085 93.1613 71.2551C94.1611 69.8763 94.6016 68.2178 94.6773 66.5321C94.7576 64.7275 94.5234 62.8912 94.1115 61.1362C93.691 59.337 93.0519 57.596 92.2084 55.9521C92.1896 55.9148 92.1858 55.8717 92.1978 55.8317C92.2098 55.7917 92.2368 55.7579 92.2731 55.7372C92.3033 55.7168 92.3404 55.7091 92.3763 55.7159C92.3938 55.7206 92.4101 55.7291 92.4239 55.7409C92.4377 55.7527 92.4486 55.7675 92.4559 55.7841C92.5599 55.9872 92.6621 56.1904 92.7603 56.3959C93.5784 58.1075 94.1807 59.9141 94.5534 61.7742C94.9152 63.5686 95.1083 65.4457 94.919 67.273Z"></path>
<path fill="#F2F2F2" d="M56.9136 74.6711C58.4004 75.7422 60.3272 75.796 62.1897 75.6644C62.4498 75.6461 62.708 75.6245 62.9639 75.6013C62.9654 75.6009 62.9674 75.6011 62.969 75.6007C62.9813 75.5995 62.9936 75.5983 63.0054 75.5976C63.0582 75.5927 63.111 75.5877 63.1633 75.5828L63.151 75.6063L63.1122 75.6795C63.1261 75.655 63.1401 75.6311 63.154 75.6066C63.1581 75.5992 63.1627 75.5919 63.1668 75.5845C63.6493 74.7449 64.1278 73.8745 64.2499 72.9157C64.376 71.9206 64.0214 70.7937 63.1456 70.3046C63.0307 70.2407 62.9091 70.1897 62.7829 70.1527C62.7306 70.1368 62.6775 70.1239 62.6238 70.1125C62.2953 70.0396 61.9533 70.0554 61.633 70.1585C61.3127 70.2615 61.0256 70.448 60.8013 70.6988C60.577 70.9495 60.4235 71.2555 60.3566 71.5853C60.2897 71.9151 60.3119 72.2567 60.4208 72.575C59.6782 71.8136 59.8168 70.5784 60.0729 69.5461C60.3295 68.5138 60.6402 67.3651 60.1182 66.4378C59.9705 66.1892 59.7717 65.9746 59.5351 65.8082C59.2984 65.6418 59.0292 65.5274 58.7452 65.4726C58.7276 65.4688 58.7101 65.465 58.6925 65.4617C58.0102 65.3235 57.3009 65.4478 56.7062 65.8097C55.6113 66.4997 55.0489 67.808 54.8664 69.0895C54.5723 71.1517 55.2231 73.4532 56.9136 74.6711Z"></path>
<path fill="white" d="M57.3937 71.3653C57.4369 71.8201 57.5462 72.2663 57.7181 72.6896C57.8765 73.0643 58.0901 73.4131 58.3517 73.7246C58.8956 74.3611 59.5843 74.8578 60.3601 75.1727C60.9469 75.4131 61.5617 75.5782 62.1899 75.6644C62.45 75.646 62.7082 75.6245 62.964 75.6013C62.9656 75.6009 62.9676 75.601 62.9692 75.6006C62.9815 75.5994 62.9938 75.5983 63.0056 75.5976C63.0584 75.5926 63.1112 75.5877 63.1635 75.5827L63.1511 75.6063L63.1124 75.6795C63.1263 75.655 63.1402 75.631 63.1542 75.6065C63.1583 75.5992 63.1629 75.5918 63.1669 75.5845C62.696 75.1153 62.3443 74.54 62.1415 73.9069C61.9387 73.2738 61.8905 72.6013 62.0011 71.9457C62.1169 71.2948 62.3848 70.6804 62.7831 70.1527C62.7307 70.1368 62.6776 70.1239 62.6239 70.1125C62.4726 70.3194 62.3398 70.5393 62.2272 70.7696C61.823 71.591 61.6941 72.5207 61.8594 73.4211C62.0132 74.2359 62.3962 74.9899 62.9635 75.5946C62.9138 75.5911 62.8637 75.5871 62.8146 75.5826C61.8797 75.5208 60.9643 75.2875 60.1138 74.8946C59.393 74.5531 58.7672 74.0397 58.2916 73.3994C57.7809 72.6951 57.5559 71.8479 57.5172 70.9868C57.4874 70.0592 57.5847 69.1318 57.8062 68.2305C58.021 67.3114 58.3475 66.4221 58.7783 65.5823C58.788 65.5633 58.7899 65.5413 58.7838 65.5208C58.7776 65.5004 58.7639 65.4831 58.7453 65.4725C58.7299 65.4621 58.7109 65.4582 58.6926 65.4617C58.6836 65.4641 58.6753 65.4684 58.6683 65.4745C58.6613 65.4805 58.6557 65.488 58.6519 65.4965C58.5988 65.6003 58.5466 65.7041 58.4965 65.809C58.0785 66.6833 57.7709 67.6062 57.5805 68.5564C57.3779 69.478 57.3149 70.4249 57.3937 71.3653Z"></path>
<path fill="#3F3D56" d="M17.2695 26.3924H1.79013C1.31556 26.3931 0.860627 26.5819 0.525058 26.9175C0.189489 27.253 0.000671341 27.708 0 28.1825V52.5072C0.000671618 52.9818 0.189489 53.4367 0.525058 53.7723C0.860627 54.1079 1.31556 54.2967 1.79013 54.2974H17.2695C17.7441 54.2967 18.199 54.1079 18.5346 53.7723C18.8701 53.4367 19.059 52.9818 19.0596 52.5072V28.1825C19.059 27.708 18.8701 27.253 18.5346 26.9175C18.199 26.5819 17.7441 26.3931 17.2695 26.3924ZM18.849 52.5072C18.8485 52.926 18.6819 53.3275 18.3858 53.6236C18.0897 53.9197 17.6883 54.0863 17.2695 54.0868H1.79013C1.37137 54.0863 0.969908 53.9197 0.673799 53.6236C0.377691 53.3275 0.211113 52.926 0.210604 52.5072V28.1825C0.211113 27.7638 0.377691 27.3623 0.673799 27.0662C0.969908 26.7701 1.37137 26.6035 1.79013 26.603H17.2695C17.6883 26.6035 18.0897 26.7701 18.3858 27.0662C18.6819 27.3623 18.8485 27.7638 18.849 28.1825V52.5072Z"></path>
<path fill="#3F3D56" d="M50.4397 54.2974H34.9603C34.4857 54.2968 34.0307 54.1081 33.6951 53.7725C33.3595 53.4369 33.1707 52.9819 33.1702 52.5072V28.1825C33.1707 27.7079 33.3595 27.2529 33.6951 26.9173C34.0307 26.5817 34.4857 26.3929 34.9603 26.3924H50.4397C50.9143 26.3929 51.3693 26.5817 51.7049 26.9173C52.0405 27.2529 52.2293 27.7079 52.2298 28.1825V52.5072C52.2293 52.9819 52.0405 53.4369 51.7049 53.7725C51.3693 54.1081 50.9143 54.2968 50.4397 54.2974ZM34.9603 26.603C34.5415 26.6035 34.14 26.77 33.8439 27.0662C33.5478 27.3623 33.3812 27.7638 33.3808 28.1825V52.5072C33.3812 52.926 33.5478 53.3275 33.8439 53.6236C34.14 53.9197 34.5415 54.0863 34.9603 54.0868H50.4397C50.8585 54.0863 51.2599 53.9197 51.5561 53.6236C51.8522 53.3275 52.0187 52.926 52.0192 52.5072V28.1825C52.0187 27.7638 51.8522 27.3623 51.5561 27.0662C51.2599 26.77 50.8585 26.6035 50.4397 26.603H34.9603Z"></path>
<path fill="#3F3D56" d="M28.2208 40.5028H21.7974C21.7695 40.5028 21.7427 40.4917 21.723 40.472C21.7032 40.4522 21.6921 40.4255 21.6921 40.3975C21.6921 40.3696 21.7032 40.3428 21.723 40.3231C21.7427 40.3033 21.7695 40.2922 21.7974 40.2922H28.2208C28.2488 40.2922 28.2756 40.3033 28.2953 40.3231C28.3151 40.3428 28.3262 40.3696 28.3262 40.3975C28.3262 40.4255 28.3151 40.4522 28.2953 40.472C28.2756 40.4917 28.2488 40.5028 28.2208 40.5028Z"></path>
<path fill="#3F3D56" d="M26.8522 43.3908C26.8302 43.3909 26.8087 43.384 26.7908 43.3711C26.7728 43.3583 26.7594 43.3401 26.7524 43.3192C26.7453 43.2984 26.745 43.2758 26.7514 43.2547C26.7579 43.2337 26.7708 43.2151 26.7883 43.2018L30.1394 40.6488C30.1781 40.6194 30.2094 40.5813 30.231 40.5378C30.2526 40.4942 30.2638 40.4462 30.2638 40.3976C30.2638 40.3489 30.2526 40.3009 30.231 40.2574C30.2094 40.2138 30.1781 40.1758 30.1394 40.1463L26.7883 37.5933C26.7661 37.5764 26.7516 37.5514 26.7479 37.5237C26.7441 37.496 26.7516 37.468 26.7685 37.4458C26.7854 37.4236 26.8104 37.4091 26.838 37.4053C26.8657 37.4016 26.8937 37.4089 26.9159 37.4258L30.267 39.9788C30.3315 40.0279 30.3838 40.0912 30.4197 40.1639C30.4557 40.2365 30.4744 40.3165 30.4744 40.3976C30.4744 40.4786 30.4557 40.5586 30.4197 40.6312C30.3838 40.7039 30.3315 40.7672 30.267 40.8163L26.9159 43.3693C26.8976 43.3833 26.8752 43.3909 26.8522 43.3908V43.3908Z"></path>
<path fill="#3F3D56" d="M61.2855 40.5028H54.8621C54.8342 40.5028 54.8074 40.4917 54.7877 40.472C54.7679 40.4522 54.7568 40.4255 54.7568 40.3975C54.7568 40.3696 54.7679 40.3428 54.7877 40.3231C54.8074 40.3033 54.8342 40.2922 54.8621 40.2922H61.2855C61.3135 40.2922 61.3403 40.3033 61.36 40.3231C61.3798 40.3428 61.3909 40.3696 61.3909 40.3975C61.3909 40.4255 61.3798 40.4522 61.36 40.472C61.3403 40.4917 61.3135 40.5028 61.2855 40.5028Z"></path>
<path fill="#3F3D56" d="M59.9169 43.3908C59.8949 43.3909 59.8734 43.384 59.8555 43.3711C59.8376 43.3583 59.8241 43.3401 59.8171 43.3192C59.81 43.2984 59.8097 43.2758 59.8161 43.2547C59.8226 43.2337 59.8355 43.2151 59.853 43.2018L63.2041 40.6488C63.2428 40.6194 63.2741 40.5813 63.2957 40.5378C63.3173 40.4942 63.3285 40.4462 63.3285 40.3976C63.3285 40.3489 63.3173 40.3009 63.2957 40.2574C63.2741 40.2138 63.2428 40.1758 63.2041 40.1463L59.853 37.5933C59.8308 37.5764 59.8163 37.5514 59.8126 37.5237C59.8088 37.496 59.8162 37.468 59.8332 37.4458C59.8501 37.4236 59.8751 37.4091 59.9028 37.4053C59.9304 37.4016 59.9584 37.4089 59.9806 37.4258L63.3317 39.9788C63.3962 40.0279 63.4485 40.0912 63.4844 40.1639C63.5204 40.2365 63.5391 40.3165 63.5391 40.3976C63.5391 40.4786 63.5204 40.5586 63.4844 40.6312C63.4485 40.7039 63.3962 40.7672 63.3317 40.8163L59.9806 43.3693C59.9623 43.3833 59.9399 43.3909 59.9169 43.3908V43.3908Z"></path>
<path fill="#6C82FF" d="M44.5953 36.2381H40.9097C40.6724 36.2379 40.4449 36.1435 40.2771 35.9757C40.1093 35.8079 40.0149 35.5804 40.0146 35.3431V31.7628C40.0149 31.5255 40.1093 31.298 40.2771 31.1302C40.4449 30.9624 40.6724 30.868 40.9097 30.8677H44.5953C44.8326 30.868 45.0601 30.9624 45.2279 31.1302C45.3957 31.298 45.4901 31.5255 45.4903 31.7628V35.3431C45.4901 35.5804 45.3957 35.8079 45.2279 35.9757C45.0601 36.1435 44.8326 36.2379 44.5953 36.2381V36.2381Z"></path>
<path fill="white" d="M45.2797 36.1855C45.2658 36.1855 45.2521 36.1828 45.2394 36.1775C45.2266 36.1722 45.215 36.1644 45.2052 36.1546L40.1507 31.1002C40.1409 31.0904 40.1332 31.0788 40.1279 31.066C40.1226 31.0532 40.1199 31.0395 40.1199 31.0257C40.1199 31.0119 40.1226 30.9982 40.1279 30.9854C40.1332 30.9726 40.1409 30.961 40.1507 30.9512C40.1605 30.9415 40.1721 30.9337 40.1849 30.9284C40.1976 30.9231 40.2113 30.9204 40.2252 30.9204C40.239 30.9204 40.2527 30.9231 40.2655 30.9284C40.2782 30.9337 40.2898 30.9415 40.2996 30.9513L45.3541 36.0057C45.3688 36.0205 45.3789 36.0392 45.3829 36.0596C45.387 36.0801 45.3849 36.1012 45.3769 36.1205C45.369 36.1397 45.3555 36.1562 45.3382 36.1677C45.3209 36.1793 45.3005 36.1855 45.2797 36.1855L45.2797 36.1855Z"></path>
<path fill="white" d="M40.2254 36.1855C40.2046 36.1855 40.1842 36.1793 40.1669 36.1677C40.1496 36.1562 40.1361 36.1397 40.1281 36.1205C40.1202 36.1012 40.1181 36.0801 40.1221 36.0596C40.1262 36.0392 40.1362 36.0205 40.1509 36.0057L45.2054 30.9513C45.2152 30.9415 45.2268 30.9337 45.2396 30.9284C45.2524 30.9231 45.2661 30.9204 45.2799 30.9204C45.2937 30.9204 45.3074 30.9231 45.3202 30.9284C45.333 30.9337 45.3446 30.9415 45.3543 30.9512C45.3641 30.961 45.3719 30.9726 45.3772 30.9854C45.3825 30.9982 45.3852 31.0119 45.3852 31.0257C45.3852 31.0395 45.3825 31.0532 45.3772 31.066C45.3719 31.0788 45.3641 31.0904 45.3543 31.1002L40.2999 36.1546C40.2901 36.1644 40.2785 36.1722 40.2657 36.1775C40.2529 36.1828 40.2392 36.1855 40.2254 36.1855V36.1855Z"></path>
<path fill="#3F3D56" d="M46.1221 41.7665H39.2775C38.9284 41.7665 38.5936 41.6278 38.3467 41.3809C38.0999 41.1341 37.9612 40.7993 37.9612 40.4502C37.9612 40.1011 38.0999 39.7663 38.3467 39.5194C38.5936 39.2726 38.9284 39.1339 39.2775 39.1339H46.1221C46.4712 39.1339 46.806 39.2726 47.0528 39.5194C47.2997 39.7663 47.4383 40.1011 47.4383 40.4502C47.4383 40.7993 47.2997 41.1341 47.0528 41.3809C46.806 41.6278 46.4712 41.7665 46.1221 41.7665ZM39.2775 39.3445C38.9842 39.3445 38.703 39.461 38.4956 39.6684C38.2883 39.8757 38.1718 40.1569 38.1718 40.4502C38.1718 40.7434 38.2883 41.0247 38.4956 41.232C38.703 41.4394 38.9842 41.5559 39.2775 41.5559H46.1221C46.4153 41.5559 46.6965 41.4394 46.9039 41.232C47.1113 41.0247 47.2277 40.7434 47.2277 40.4502C47.2277 40.1569 47.1113 39.8757 46.9039 39.6684C46.6965 39.461 46.4153 39.3445 46.1221 39.3445H39.2775Z"></path>
<path fill="#3F3D56" d="M46.1221 45.7679H39.2775C38.9284 45.7679 38.5936 45.6292 38.3467 45.3824C38.0999 45.1355 37.9612 44.8007 37.9612 44.4516C37.9612 44.1026 38.0999 43.7678 38.3467 43.5209C38.5936 43.2741 38.9284 43.1354 39.2775 43.1354H46.1221C46.4712 43.1354 46.806 43.2741 47.0528 43.5209C47.2997 43.7678 47.4383 44.1026 47.4383 44.4516C47.4383 44.8007 47.2997 45.1355 47.0528 45.3824C46.806 45.6292 46.4712 45.7679 46.1221 45.7679V45.7679ZM39.2775 43.346C38.9842 43.346 38.703 43.4625 38.4956 43.6698C38.2883 43.8772 38.1718 44.1584 38.1718 44.4516C38.1718 44.7449 38.2883 45.0261 38.4956 45.2335C38.703 45.4408 38.9842 45.5573 39.2775 45.5573H46.1221C46.4153 45.5573 46.6965 45.4408 46.9039 45.2335C47.1113 45.0261 47.2277 44.7449 47.2277 44.4516C47.2277 44.1584 47.1113 43.8772 46.9039 43.6698C46.6965 43.4625 46.4153 43.346 46.1221 43.346H39.2775Z"></path>
<path fill="#3F3D56" d="M46.1221 49.7694H39.2775C38.9284 49.7694 38.5936 49.6307 38.3467 49.3839C38.0999 49.137 37.9612 48.8022 37.9612 48.4531C37.9612 48.104 38.0999 47.7692 38.3467 47.5224C38.5936 47.2755 38.9284 47.1368 39.2775 47.1368H46.1221C46.4712 47.1368 46.806 47.2755 47.0528 47.5224C47.2997 47.7692 47.4383 48.104 47.4383 48.4531C47.4383 48.8022 47.2997 49.137 47.0528 49.3839C46.806 49.6307 46.4712 49.7694 46.1221 49.7694ZM39.2775 47.3474C38.9842 47.3474 38.703 47.4639 38.4956 47.6713C38.2883 47.8786 38.1718 48.1599 38.1718 48.4531C38.1718 48.7464 38.2883 49.0276 38.4956 49.2349C38.703 49.4423 38.9842 49.5588 39.2775 49.5588H46.1221C46.4153 49.5588 46.6965 49.4423 46.9039 49.2349C47.1113 49.0276 47.2277 48.7464 47.2277 48.4531C47.2277 48.1599 47.1113 47.8786 46.9039 47.6713C46.6965 47.4639 46.4153 47.3474 46.1221 47.3474H39.2775Z"></path>
<path fill="#3F3D56" d="M82.223 25.0243L66.9525 27.5587C66.4844 27.6371 66.0665 27.8978 65.7904 28.2838C65.5143 28.6698 65.4026 29.1495 65.4796 29.6178L69.4622 53.6143C69.5406 54.0823 69.8013 54.5002 70.1873 54.7763C70.5733 55.0524 71.053 55.1642 71.5213 55.0871L86.7918 52.5528C87.2598 52.4744 87.6777 52.2136 87.9538 51.8277C88.2299 51.4417 88.3417 50.962 88.2647 50.4937L84.282 26.4972C84.2037 26.0292 83.9429 25.6113 83.5569 25.3352C83.171 25.0591 82.6913 24.9473 82.223 25.0243V25.0243ZM88.0569 50.5282C88.1249 50.9414 88.0263 51.3647 87.7827 51.7053C87.5391 52.0459 87.1703 52.2759 86.7573 52.345L71.4868 54.8794C71.0736 54.9474 70.6503 54.8488 70.3097 54.6052C69.9691 54.3616 69.739 53.9928 69.67 53.5798L65.6874 29.5833C65.6193 29.1701 65.7179 28.7468 65.9615 28.4062C66.2052 28.0656 66.5739 27.8355 66.987 27.7665L82.2575 25.2321C82.6706 25.164 83.094 25.2626 83.4346 25.5063C83.7752 25.7499 84.0052 26.1187 84.0743 26.5317L88.0569 50.5282Z"></path>
<path fill="#CCCCCC" d="M79.5328 34.864L72.7806 35.9847C72.4362 36.0419 72.0832 35.9599 71.7993 35.7568C71.5153 35.5537 71.3237 35.2461 71.2665 34.9017C71.2094 34.5573 71.2914 34.2043 71.4945 33.9204C71.6976 33.6364 72.0052 33.4448 72.3495 33.3877L79.1018 32.267C79.4461 32.2101 79.7989 32.2922 80.0827 32.4953C80.3664 32.6984 80.5579 33.0059 80.615 33.3502C80.6722 33.6944 80.5903 34.0473 80.3873 34.3311C80.1844 34.615 79.877 34.8067 79.5328 34.864V34.864ZM72.384 33.5954C72.0948 33.6435 71.8365 33.8045 71.666 34.043C71.4954 34.2815 71.4266 34.5779 71.4746 34.8672C71.5226 35.1564 71.6835 35.4147 71.9219 35.5854C72.1604 35.756 72.4568 35.8249 72.7461 35.7769L79.4983 34.6563C79.7876 34.6082 80.0459 34.4472 80.2164 34.2087C80.387 33.9703 80.4558 33.6738 80.4078 33.3846C80.3598 33.0953 80.1989 32.837 79.9604 32.6664C79.722 32.4958 79.4255 32.4269 79.1363 32.4748L72.384 33.5954Z"></path>
<path fill="#CCCCCC" d="M80.3261 39.6426L73.5738 40.7632C73.4033 40.7916 73.2288 40.7862 73.0603 40.7471C72.8918 40.7081 72.7327 40.6362 72.5921 40.5356C72.4514 40.4351 72.3319 40.3078 72.2404 40.161C72.149 40.0143 72.0873 39.8509 72.059 39.6803C72.0307 39.5098 72.0363 39.3353 72.0754 39.1668C72.1146 38.9984 72.1865 38.8393 72.2872 38.6987C72.3878 38.5581 72.5152 38.4387 72.662 38.3473C72.8088 38.2559 72.9722 38.1944 73.1428 38.1662L79.8951 37.0455C80.2395 36.9884 80.5925 37.0704 80.8764 37.2735C81.1603 37.4766 81.3519 37.7842 81.4091 38.1285C81.4663 38.4729 81.3843 38.8259 81.1812 39.1099C80.9781 39.3938 80.6705 39.5854 80.3261 39.6426V39.6426ZM73.1773 38.3739C72.8881 38.4221 72.6299 38.5831 72.4594 38.8216C72.2889 39.06 72.2201 39.3564 72.2681 39.6456C72.3161 39.9348 72.4769 40.1931 72.7153 40.3638C72.9537 40.5344 73.2501 40.6033 73.5393 40.5555L80.2916 39.4348C80.5808 39.3867 80.839 39.2257 81.0095 38.9872C81.18 38.7487 81.2488 38.4523 81.2008 38.1631C81.1528 37.8739 80.992 37.6156 80.7536 37.445C80.5152 37.2744 80.2188 37.2054 79.9296 37.2533L73.1773 38.3739Z"></path>
<path fill="#CCCCCC" d="M81.1191 44.4211L74.3668 45.5418C74.1962 45.5702 74.0217 45.5647 73.8533 45.5256C73.6848 45.4866 73.5257 45.4147 73.385 45.3142C73.2443 45.2136 73.1249 45.0863 73.0334 44.9396C72.9419 44.7928 72.8803 44.6295 72.852 44.4589C72.8237 44.2883 72.8293 44.1138 72.8684 43.9454C72.9076 43.7769 72.9795 43.6179 73.0802 43.4773C73.1808 43.3366 73.3082 43.2172 73.455 43.1259C73.6018 43.0345 73.7652 42.9729 73.9358 42.9447L80.688 41.8241C81.0323 41.7672 81.3851 41.8493 81.6689 42.0524C81.9526 42.2555 82.1441 42.563 82.2013 42.9072C82.2584 43.2515 82.1765 43.6043 81.9736 43.8882C81.7706 44.1721 81.4633 44.3638 81.1191 44.4211ZM73.9703 43.1525C73.827 43.1762 73.6898 43.228 73.5665 43.3047C73.4433 43.3815 73.3363 43.4818 73.2518 43.5999C73.1673 43.718 73.1069 43.8516 73.074 43.9931C73.0412 44.1345 73.0365 44.2811 73.0603 44.4243C73.0841 44.5676 73.1358 44.7047 73.2126 44.828C73.2894 44.9513 73.3897 45.0582 73.5079 45.1426C73.626 45.2271 73.7596 45.2875 73.9011 45.3203C74.0425 45.3532 74.1891 45.3578 74.3323 45.334L81.0846 44.2133C81.2279 44.1896 81.3651 44.1379 81.4884 44.0612C81.6117 43.9844 81.7187 43.8841 81.8032 43.766C81.8877 43.6479 81.9481 43.5143 81.981 43.3728C82.0139 43.2313 82.0186 43.0848 81.9948 42.9415C81.971 42.7982 81.9192 42.661 81.8424 42.5378C81.7656 42.4145 81.6653 42.3076 81.5471 42.2231C81.429 42.1386 81.2953 42.0783 81.1538 42.0454C81.0124 42.0126 80.8658 42.008 80.7225 42.0319L73.9703 43.1525Z"></path>
<path fill="#CCCCCC" d="M81.9123 49.1996L75.16 50.3203C74.9894 50.3486 74.815 50.343 74.6466 50.3039C74.4783 50.2648 74.3192 50.1929 74.1786 50.0923C74.0381 49.9918 73.9187 49.8645 73.8273 49.7178C73.7358 49.5711 73.6742 49.4078 73.6459 49.2373C73.6176 49.0667 73.6232 48.8923 73.6623 48.7239C73.7014 48.5556 73.7733 48.3965 73.8739 48.256C73.9744 48.1154 74.1017 47.996 74.2484 47.9046C74.3951 47.8132 74.5584 47.7515 74.7289 47.7232L81.4812 46.6026C81.8255 46.5457 82.1783 46.6278 82.4621 46.8309C82.7458 47.034 82.9373 47.3415 82.9945 47.6857C83.0516 48.03 82.9697 48.3828 82.7668 48.6667C82.5638 48.9506 82.2565 49.1423 81.9123 49.1996V49.1996ZM74.7634 47.931C74.6202 47.9548 74.483 48.0065 74.3598 48.0833C74.2366 48.1601 74.1296 48.2604 74.0452 48.3785C73.8746 48.617 73.8057 48.9135 73.8537 49.2028C73.9017 49.4921 74.0627 49.7504 74.3012 49.921C74.5397 50.0916 74.8362 50.1605 75.1255 50.1125L81.8778 48.9919C82.167 48.9438 82.4253 48.7828 82.5959 48.5443C82.7664 48.3058 82.8353 48.0094 82.7872 47.7201C82.7392 47.4309 82.5783 47.1726 82.3399 47.0019C82.1014 46.8313 81.805 46.7624 81.5157 46.8104L74.7634 47.931Z"></path>
<path fill="#3F3D56" d="M84.409 27.9058L65.8143 30.9919C65.8006 30.9942 65.7867 30.9938 65.7732 30.9907C65.7596 30.9876 65.7469 30.9818 65.7356 30.9738C65.7243 30.9657 65.7147 30.9555 65.7074 30.9438C65.7 30.932 65.6951 30.9189 65.6928 30.9053C65.6906 30.8916 65.691 30.8776 65.6942 30.8641C65.6973 30.8506 65.7031 30.8379 65.7112 30.8266C65.7193 30.8154 65.7295 30.8058 65.7413 30.7985C65.753 30.7912 65.7662 30.7863 65.7798 30.7841L84.3745 27.698C84.3882 27.6957 84.4022 27.6961 84.4157 27.6992C84.4292 27.7023 84.4419 27.708 84.4532 27.7161C84.4645 27.7241 84.4741 27.7343 84.4814 27.7461C84.4888 27.7578 84.4937 27.7709 84.496 27.7846C84.4983 27.7983 84.4978 27.8123 84.4947 27.8257C84.4915 27.8392 84.4857 27.852 84.4776 27.8632C84.4696 27.8745 84.4593 27.8841 84.4476 27.8914C84.4358 27.8987 84.4227 27.9036 84.409 27.9058V27.9058Z"></path>
<path fill="#6C82FF" d="M67.8345 29.7505C68.2416 29.7505 68.5716 29.4205 68.5716 29.0134C68.5716 28.6063 68.2416 28.2763 67.8345 28.2763C67.4274 28.2763 67.0974 28.6063 67.0974 29.0134C67.0974 29.4205 67.4274 29.7505 67.8345 29.7505Z"></path>
<path fill="#3F3D56" d="M82.5164 26.1497L80.4388 26.4946C80.4113 26.499 80.3832 26.4924 80.3605 26.4762C80.3379 26.4599 80.3226 26.4353 80.3181 26.4079C80.3135 26.3804 80.32 26.3522 80.3362 26.3295C80.3524 26.3068 80.3769 26.2915 80.4044 26.2868L82.4819 25.942C82.5094 25.9375 82.5376 25.9441 82.5602 25.9604C82.5829 25.9766 82.5982 26.0012 82.6027 26.0287C82.6073 26.0562 82.6008 26.0843 82.5846 26.107C82.5684 26.1297 82.5439 26.1451 82.5164 26.1497V26.1497Z"></path>
<path fill="#3F3D56" d="M82.62 26.773L80.5424 27.1178C80.5148 27.1223 80.4867 27.1157 80.4641 27.0994C80.4414 27.0832 80.4261 27.0586 80.4216 27.0311C80.417 27.0037 80.4235 26.9755 80.4397 26.9528C80.4559 26.9301 80.4804 26.9147 80.5079 26.9101L82.5855 26.5653C82.613 26.5608 82.6412 26.5674 82.6638 26.5837C82.6864 26.5999 82.7017 26.6245 82.7063 26.652C82.7108 26.6795 82.7043 26.7076 82.6881 26.7303C82.672 26.753 82.6475 26.7684 82.62 26.773V26.773Z"></path>
<path fill="#3F3D56" d="M82.7234 27.3963L80.6458 27.7411C80.6322 27.7434 80.6182 27.743 80.6047 27.7399C80.5912 27.7368 80.5784 27.7311 80.5671 27.723C80.5558 27.715 80.5463 27.7048 80.5389 27.6931C80.5316 27.6813 80.5266 27.6682 80.5244 27.6545C80.5221 27.6409 80.5226 27.6269 80.5257 27.6134C80.5288 27.5999 80.5346 27.5872 80.5427 27.5759C80.5508 27.5646 80.561 27.5551 80.5728 27.5478C80.5846 27.5405 80.5977 27.5356 80.6113 27.5334L82.689 27.1886C82.7026 27.1862 82.7166 27.1866 82.7301 27.1897C82.7436 27.1928 82.7564 27.1986 82.7677 27.2066C82.779 27.2147 82.7886 27.2249 82.7959 27.2366C82.8032 27.2484 82.8082 27.2615 82.8104 27.2751C82.8127 27.2888 82.8123 27.3028 82.8091 27.3163C82.806 27.3298 82.8002 27.3425 82.7921 27.3538C82.784 27.365 82.7738 27.3746 82.762 27.3819C82.7502 27.3892 82.7371 27.3941 82.7234 27.3963Z"></path>
<path fill="#6C82FF" d="M13.4787 42.2403H5.5811C5.3438 42.2401 5.11629 42.1457 4.94849 41.9779C4.78069 41.8101 4.6863 41.5826 4.68604 41.3453V33.3423C4.6863 33.105 4.78069 32.8775 4.94849 32.7097C5.11629 32.5419 5.3438 32.4475 5.5811 32.4473H13.4787C13.716 32.4475 13.9435 32.5419 14.1113 32.7097C14.2791 32.8775 14.3735 33.105 14.3738 33.3423V41.3453C14.3735 41.5826 14.2791 41.8101 14.1113 41.9779C13.9435 42.1457 13.716 42.2401 13.4787 42.2403V42.2403Z"></path>
<path fill="#3F3D56" d="M12.8994 48.1899H6.0548C5.7057 48.1899 5.3709 48.0512 5.12405 47.8043C4.8772 47.5575 4.73853 47.2227 4.73853 46.8736C4.73853 46.5245 4.8772 46.1897 5.12405 45.9428C5.3709 45.696 5.7057 45.5573 6.0548 45.5573H12.8994C13.2485 45.5573 13.5833 45.696 13.8302 45.9428C14.077 46.1897 14.2157 46.5245 14.2157 46.8736C14.2157 47.2227 14.077 47.5575 13.8302 47.8043C13.5833 48.0512 13.2485 48.1899 12.8994 48.1899ZM6.0548 45.7679C5.76156 45.7679 5.48032 45.8844 5.27297 46.0918C5.06562 46.2991 4.94913 46.5803 4.94913 46.8736C4.94913 47.1668 5.06562 47.4481 5.27297 47.6554C5.48032 47.8628 5.76156 47.9793 6.0548 47.9793H12.8994C13.1927 47.9793 13.4739 47.8628 13.6812 47.6554C13.8886 47.4481 14.0051 47.1668 14.0051 46.8736C14.0051 46.5803 13.8886 46.2991 13.6812 46.0918C13.4739 45.8844 13.1927 45.7679 12.8994 45.7679H6.0548Z"></path>
<path fill="white" d="M14.1631 42.0824C14.1493 42.0824 14.1356 42.0797 14.1228 42.0744C14.11 42.0691 14.0984 42.0613 14.0886 42.0515L4.82208 32.785C4.8122 32.7752 4.80435 32.7636 4.79898 32.7508C4.7936 32.738 4.79081 32.7243 4.79077 32.7104C4.79073 32.6965 4.79343 32.6827 4.79873 32.6699C4.80402 32.6571 4.8118 32.6454 4.82162 32.6356C4.83144 32.6258 4.8431 32.618 4.85594 32.6127C4.86878 32.6074 4.88253 32.6047 4.89642 32.6047C4.9103 32.6048 4.92404 32.6076 4.93684 32.613C4.94964 32.6183 4.96126 32.6262 4.97101 32.6361L14.2376 41.9026C14.2523 41.9174 14.2623 41.9361 14.2664 41.9565C14.2704 41.977 14.2684 41.9981 14.2604 42.0174C14.2524 42.0366 14.2389 42.0531 14.2216 42.0646C14.2043 42.0762 14.1839 42.0824 14.1631 42.0824V42.0824Z"></path>
<path fill="white" d="M4.89656 42.0824C4.87573 42.0824 4.85537 42.0762 4.83806 42.0646C4.82074 42.0531 4.80725 42.0366 4.79928 42.0174C4.79131 41.9981 4.78922 41.977 4.79328 41.9565C4.79734 41.9361 4.80737 41.9174 4.82209 41.9026L14.0886 32.6361C14.0984 32.6262 14.11 32.6183 14.1228 32.613C14.1356 32.6076 14.1494 32.6048 14.1632 32.6047C14.1771 32.6047 14.1909 32.6074 14.2037 32.6127C14.2166 32.618 14.2282 32.6258 14.238 32.6356C14.2479 32.6454 14.2556 32.6571 14.2609 32.6699C14.2662 32.6827 14.2689 32.6965 14.2689 32.7104C14.2688 32.7242 14.266 32.738 14.2607 32.7508C14.2553 32.7636 14.2474 32.7752 14.2376 32.785L4.97102 42.0515C4.96125 42.0613 4.94965 42.0691 4.93687 42.0744C4.92409 42.0797 4.91039 42.0824 4.89656 42.0824V42.0824Z"></path>
<path fill="#A0616A" d="M86.2478 52.8431C86.2965 52.6851 86.3101 52.5183 86.2874 52.3545C86.2647 52.1907 86.2064 52.0338 86.1165 51.895C86.0267 51.7562 85.9075 51.6387 85.7673 51.5509C85.6272 51.4631 85.4695 51.4072 85.3053 51.3869L79.8999 45.0706L78.6392 46.3943L84.0233 52.4506C84.0076 52.7286 84.0944 53.0027 84.2672 53.2209C84.4401 53.4392 84.687 53.5865 84.9612 53.6349C85.2354 53.6833 85.5178 53.6294 85.7549 53.4835C85.9921 53.3376 86.1674 53.1097 86.2478 52.8431V52.8431Z"></path>
<path fill="#6C82FF" d="M81.4658 46.4012L79.5336 47.8134C79.4786 47.8535 79.4156 47.8814 79.3489 47.895C79.2822 47.9087 79.2133 47.9078 79.147 47.8924C79.0807 47.877 79.0184 47.8475 78.9645 47.8059C78.9106 47.7643 78.8663 47.7116 78.8346 47.6513L77.7242 45.5394C77.5203 45.257 77.4366 44.9052 77.4916 44.5612C77.5466 44.2171 77.7358 43.9089 78.0177 43.7042C78.2996 43.4994 78.6512 43.4148 78.9954 43.4689C79.3395 43.523 79.6482 43.7113 79.8537 43.9927L81.5237 45.686C81.5715 45.7345 81.6083 45.7927 81.6316 45.8567C81.6548 45.9207 81.664 45.989 81.6585 46.0569C81.653 46.1247 81.633 46.1906 81.5997 46.2501C81.5665 46.3095 81.5208 46.361 81.4658 46.4012V46.4012Z"></path>
<path fill="#A0616A" d="M77.7374 42.1812C79.1658 42.1812 80.3238 41.0233 80.3238 39.5949C80.3238 38.1665 79.1658 37.0086 77.7374 37.0086C76.3091 37.0086 75.1511 38.1665 75.1511 39.5949C75.1511 41.0233 76.3091 42.1812 77.7374 42.1812Z"></path>
<path fill="#2F2E41" d="M78.8607 51.2632C78.8339 51.2632 78.8071 51.261 78.7807 51.2565L74.2427 50.4927C74.1334 50.4745 74.0339 50.4185 73.9617 50.3344C73.8895 50.2504 73.8491 50.1436 73.8475 50.0328C73.8337 48.9946 73.9114 46.3738 74.9285 44.4649C75.2466 43.8682 75.7706 43.4074 76.403 43.1681C77.0355 42.9289 77.7332 42.9275 78.3666 43.1642C79 43.4009 79.5259 43.8596 79.8464 44.455C80.1669 45.0504 80.2602 45.7419 80.109 46.4009C79.7685 47.8673 79.5083 49.3511 79.3295 50.8457C79.3158 50.9606 79.2606 51.0664 79.1743 51.1433C79.0879 51.2202 78.9764 51.2629 78.8607 51.2632L78.8607 51.2632Z"></path>
<path fill="#A0616A" d="M69.3463 42.7474C69.3592 42.8042 69.3677 42.8619 69.3715 42.9201L73.895 45.5297L74.9945 44.8967L76.1667 46.4312L74.3291 47.7409C74.1807 47.8467 74.0019 47.9015 73.8196 47.8971C73.6374 47.8926 73.4615 47.8292 73.3184 47.7163L68.6539 44.0364C68.4434 44.1143 68.2141 44.1263 67.9966 44.0708C67.7792 44.0152 67.5837 43.8948 67.4364 43.7255C67.289 43.5561 67.1967 43.346 67.1717 43.1229C67.1467 42.8998 67.1902 42.6744 67.2964 42.4767C67.4026 42.279 67.5665 42.1182 67.7663 42.0159C67.9661 41.9136 68.1923 41.8745 68.4149 41.9039C68.6374 41.9333 68.8457 42.0297 69.0121 42.1804C69.1785 42.3311 69.2951 42.5288 69.3463 42.7474V42.7474Z"></path>
<path fill="#6C82FF" d="M73.9572 45.2688C73.9708 45.2021 73.9986 45.1391 74.0388 45.0841C74.079 45.0291 74.1306 44.9835 74.19 44.9503L76.2658 43.7895C76.5416 43.5767 76.8906 43.4819 77.2361 43.5259C77.5817 43.57 77.8957 43.7492 78.1094 44.0244C78.323 44.2996 78.4188 44.6483 78.3757 44.994C78.3327 45.3397 78.1543 45.6542 77.8797 45.8686L76.2247 47.5873C76.1774 47.6363 76.1202 47.6746 76.0568 47.6995C75.9934 47.7245 75.9254 47.7354 75.8575 47.7317C75.7895 47.728 75.7231 47.7097 75.6628 47.678C75.6025 47.6463 75.5498 47.602 75.5082 47.548L74.0462 45.6532C74.0046 45.5993 73.9751 45.5371 73.9597 45.4707C73.9444 45.4044 73.9435 45.3355 73.9572 45.2688Z"></path>
<path fill="#A0616A" d="M71.767 74.4591H70.476L70.1721 69.4957L71.7672 69.4796L71.767 74.4591Z"></path>
<path fill="#2F2E41" d="M72.0962 75.7105L67.9336 75.7104V75.6577C67.9336 75.445 67.9755 75.2343 68.0569 75.0377C68.1383 74.8411 68.2577 74.6625 68.4081 74.5121C68.5586 74.3616 68.7372 74.2423 68.9338 74.1609C69.1304 74.0794 69.341 74.0375 69.5538 74.0375H69.5539L72.0963 74.0376L72.0962 75.7105Z"></path>
<path fill="#A0616A" d="M84.0873 74.4591H82.7962L82.1821 69.4796H84.0875L84.0873 74.4591Z"></path>
<path fill="#2F2E41" d="M84.4165 75.7105L80.2539 75.7104V75.6577C80.2539 75.445 80.2958 75.2343 80.3772 75.0377C80.4587 74.8411 80.578 74.6625 80.7285 74.5121C80.8789 74.3616 81.0575 74.2423 81.2541 74.1609C81.4507 74.0794 81.6614 74.0375 81.8741 74.0375H81.8742L84.4166 74.0376L84.4165 75.7105Z"></path>
<path fill="#2F2E41" d="M82.6197 71.8769C82.5215 71.8767 82.4257 71.846 82.3455 71.7892C82.2653 71.7324 82.2047 71.6522 82.1719 71.5595L78.0578 59.805C78.042 59.76 78.0143 59.7201 77.9776 59.6896C77.9409 59.6591 77.8967 59.6391 77.8495 59.6318C77.8024 59.6246 77.7541 59.6302 77.7099 59.6482C77.6658 59.6662 77.6273 59.6959 77.5987 59.7341L73.5856 65.0848C73.5543 65.1266 73.5323 65.1745 73.5208 65.2254L72.242 70.9306C72.2191 71.032 72.1636 71.1231 72.084 71.1899C72.0043 71.2566 71.905 71.2954 71.8012 71.3003L70.2695 71.3699C70.2035 71.3733 70.1375 71.3626 70.0759 71.3386C70.0142 71.3146 69.9584 71.2778 69.912 71.2307C69.8654 71.1838 69.8292 71.1277 69.8056 71.066C69.7819 71.0043 69.7714 70.9384 69.7748 70.8724L70.0418 65.665C70.1261 63.9804 70.5602 62.3318 71.3164 60.8241C72.9975 57.4718 73.9701 53.8092 74.1737 50.0646L74.177 50.0063L78.8895 50.756L79.5969 51.7355C79.9125 52.1774 80.2545 52.6 80.6209 53.0008C81.5218 53.9776 81.7923 55.284 81.8605 56.2079C81.9487 57.3433 82.1095 58.472 82.3418 59.5869L84.6789 71.0713C84.6964 71.1365 84.6997 71.2047 84.6888 71.2713C84.6778 71.3379 84.6527 71.4014 84.6151 71.4575C84.5776 71.5137 84.5285 71.5611 84.4712 71.5967C84.4138 71.6323 84.3495 71.6553 84.2826 71.664L82.6804 71.873C82.6603 71.8756 82.64 71.8769 82.6197 71.8769Z"></path>
<path fill="#2F2E41" d="M80.597 37.7998C80.3916 37.177 80.2399 36.5378 80.1437 35.8891C80.1135 35.5114 80.2103 35.1051 80.4853 34.8445C81 34.3568 81.8745 34.5891 82.4128 35.0506C83.1908 35.7176 83.5788 36.7427 83.7254 37.7569C83.872 38.7711 83.8075 39.8024 83.8428 40.8265C83.8781 41.8507 84.0246 42.9037 84.5467 43.7855C85.0688 44.6672 86.0377 45.344 87.0597 45.269C87.4722 45.2467 87.8639 45.0807 88.1668 44.7998C88.3155 44.6583 88.4281 44.4833 88.4952 44.2893C88.5623 44.0954 88.5819 43.8882 88.5524 43.6851C89.0747 44.6204 88.81 45.8881 88.0308 46.6234C87.2517 47.3587 86.0532 47.5665 85.0289 47.2526C84.0047 46.9387 83.1616 46.1515 82.6581 45.2059C82.1546 44.2603 81.97 43.168 81.9968 42.097C82.0173 41.2746 82.1571 40.4454 82.0181 39.6346C81.8792 38.8237 81.3717 38.0004 80.5715 37.8094L80.597 37.7998Z"></path>
<path fill="#2F2E41" d="M77.0036 38.8659C76.8672 39.3217 76.3453 39.6027 75.8759 39.5256C75.4064 39.4485 75.0204 39.0619 74.8777 38.6081C74.7487 38.1445 74.8015 37.6492 75.0253 37.2233C75.1486 36.968 75.3211 36.7395 75.5328 36.5509C75.7445 36.3623 75.9914 36.2174 76.2592 36.1243C76.5285 36.035 76.8154 36.0118 77.0955 36.0566C77.3757 36.1013 77.641 36.2128 77.8691 36.3815C77.8934 36.2791 77.9446 36.1851 78.0173 36.109C78.09 36.033 78.1817 35.9777 78.2829 35.9488C78.4867 35.8939 78.7018 35.8971 78.9038 35.958C79.4861 36.1239 79.9907 36.491 80.3278 36.9939C80.6606 37.4952 80.8808 38.0628 80.9731 38.6574C81.132 39.5492 81.0734 40.5236 80.5726 41.2784C80.0717 42.0331 79.0471 42.4788 78.2158 42.1189C78.164 41.854 78.2868 41.5871 78.4288 41.3575C78.5709 41.1279 78.7392 40.9042 78.7938 40.6398C78.8484 40.3754 78.7438 40.0519 78.488 39.9654C78.2698 39.8917 78.0371 40.0112 77.8072 40.0256C77.6767 40.0338 77.5462 40.0075 77.4291 39.9494C77.3119 39.8913 77.212 39.8034 77.1395 39.6945C77.067 39.5856 77.0244 39.4596 77.016 39.329C77.0076 39.1985 77.0337 39.068 77.0916 38.9508L77.0036 38.8659Z"></path>
<path fill="#CCCCCC" d="M96.0158 75.779H55.8958C55.8679 75.779 55.8411 75.7679 55.8214 75.7481C55.8016 75.7284 55.7905 75.7016 55.7905 75.6737C55.7905 75.6457 55.8016 75.619 55.8214 75.5992C55.8411 75.5795 55.8679 75.5684 55.8958 75.5684H96.0158C96.0437 75.5684 96.0705 75.5795 96.0903 75.5992C96.11 75.619 96.1211 75.6457 96.1211 75.6737C96.1211 75.7016 96.11 75.7284 96.0903 75.7481C96.0705 75.7679 96.0437 75.779 96.0158 75.779Z"></path>
</g>
<defs>
<clipPath id="clip0">
<rect transform="translate(0 25)" fill="white" height="50.7895" width="100"></rect>
</clipPath>
</defs>
</svg>
